<?xml version="1.0" encoding="UTF-8"?>
<svg xmlns="http://www.w3.org/2000/svg" xmlns:xlink="http://www.w3.org/1999/xlink" width="px" height="27px" viewBox="0 0 25 27" version="1.1">
<g id="surface1">
<path style=" stroke:none;fill-rule:nonzero;fill:rgb(47.843137%,18.039216%,0%);fill-opacity:1;" d="M 17.742188 3.226562 C 17.816406 3.300781 17.898438 3.375 17.980469 3.445312 C 18.070312 3.523438 18.164062 3.597656 18.269531 3.671875 C 18.433594 3.792969 18.605469 3.917969 18.796875 4.046875 C 18.980469 4.164062 19.171875 4.28125 19.386719 4.386719 C 19.550781 4.472656 19.734375 4.546875 19.925781 4.621094 C 20.050781 4.671875 20.175781 4.71875 20.230469 4.742188 C 22.042969 5.226562 23.457031 6.230469 24.269531 8.042969 C 25.058594 9.804688 25.246094 12.339844 24.617188 15.917969 C 24.613281 15.9375 24.609375 15.957031 24.601562 15.980469 C 24.40625 16.570312 24.191406 17.140625 23.953125 17.6875 C 23.71875 18.226562 23.464844 18.742188 23.195312 19.226562 C 22.601562 20.292969 21.917969 21.253906 21.121094 22.113281 C 20.324219 22.972656 19.417969 23.726562 18.378906 24.378906 C 16.933594 25.28125 15.167969 26.078125 13.433594 26.546875 C 11.867188 26.972656 10.316406 27.132812 9.027344 26.882812 C 8.070312 26.699219 7.265625 26.324219 6.738281 25.839844 C 6.382812 25.519531 6.148438 25.144531 6.0625 24.742188 C 5.972656 24.316406 6.042969 23.878906 6.3125 23.441406 C 6.609375 22.953125 7.167969 22.472656 8.039062 22.039062 C 8.054688 22.03125 8.070312 22.023438 8.089844 22.015625 C 9.742188 21.433594 11.207031 20.78125 12.464844 20.054688 C 13.707031 19.332031 14.738281 18.539062 15.542969 17.660156 C 16.464844 16.65625 17.03125 15.445312 17.34375 14.148438 C 17.722656 12.574219 17.726562 10.871094 17.539062 9.257812 C 17.496094 8.867188 17.429688 8.5 17.347656 8.144531 C 17.261719 7.785156 17.164062 7.445312 17.050781 7.132812 C 16.808594 6.453125 16.761719 6.421875 16.34375 6.132812 C 16.261719 6.074219 16.164062 6.003906 16.046875 5.925781 C 15.640625 5.402344 15.3125 5.105469 14.921875 4.40625 L 13.210938 5.246094 L 13.21875 5.261719 C 13.222656 5.265625 13.226562 5.273438 13.226562 5.277344 C 13.265625 5.351562 13.304688 5.421875 13.347656 5.488281 C 13.394531 5.5625 13.445312 5.636719 13.5 5.714844 C 13.589844 5.839844 13.683594 5.964844 13.789062 6.097656 C 13.890625 6.222656 14.003906 6.347656 14.128906 6.472656 C 14.226562 6.570312 14.339844 6.664062 14.457031 6.757812 C 14.535156 6.824219 14.613281 6.886719 14.648438 6.917969 C 15.820312 7.667969 16.597656 8.695312 16.753906 10.167969 C 16.90625 11.59375 16.460938 13.433594 15.195312 15.832031 C 15.1875 15.847656 15.179688 15.859375 15.167969 15.875 C 14.894531 16.25 14.609375 16.601562 14.316406 16.9375 C 14.023438 17.269531 13.726562 17.574219 13.425781 17.855469 C 12.761719 18.480469 12.054688 19.007812 11.292969 19.4375 C 10.53125 19.867188 9.714844 20.199219 8.828125 20.421875 C 7.597656 20.738281 6.164062 20.90625 4.824219 20.84375 C 3.617188 20.792969 2.480469 20.558594 1.625 20.089844 C 0.988281 19.742188 0.503906 19.296875 0.238281 18.832031 C 0.0625 18.523438 -0.0195312 18.207031 0.0117188 17.902344 C 0.046875 17.582031 0.195312 17.285156 0.488281 17.035156 C 0.8125 16.757812 1.316406 16.542969 2.03125 16.429688 C 2.046875 16.425781 2.058594 16.425781 2.074219 16.425781 C 3.378906 16.382812 4.566406 16.253906 5.621094 16.019531 C 6.667969 15.789062 7.585938 15.460938 8.355469 15.019531 C 9.238281 14.511719 9.917969 13.78125 10.4375 12.933594 C 11.066406 11.902344 11.460938 10.695312 11.699219 9.511719 C 11.757812 9.222656 11.792969 8.949219 11.816406 8.675781 C 11.839844 8.402344 11.84375 8.140625 11.839844 7.890625 C 11.824219 7.351562 11.800781 7.320312 11.570312 7.023438 C 11.523438 6.960938 11.46875 6.890625 11.40625 6.808594 L 11.039062 6.3125 L 10.816406 6.421875 L 10.8125 6.421875 C 10.53125 6.558594 10.191406 6.441406 10.054688 6.160156 L 9.1875 4.414062 C 9.054688 4.136719 9.164062 3.804688 9.441406 3.664062 L 16.476562 0.0820312 C 16.5 0.0664062 16.519531 0.0585938 16.542969 0.046875 C 16.835938 -0.078125 17.167969 0.0585938 17.292969 0.34375 L 18.109375 2.246094 C 18.226562 2.519531 18.109375 2.839844 17.839844 2.972656 L 17.601562 3.085938 C 17.625 3.109375 17.648438 3.132812 17.726562 3.207031 C 17.730469 3.214844 17.734375 3.21875 17.742188 3.226562 Z M 17.742188 3.226562 "/>
<path style=" stroke:none;fill-rule:nonzero;fill:rgb(99.607843%,85.490196%,0%);fill-opacity:1;" d="M 12.609375 5.539062 L 11.652344 6.007812 L 11.949219 6.410156 C 12.007812 6.488281 12.058594 6.554688 12.105469 6.617188 C 12.453125 7.066406 12.488281 7.117188 12.511719 7.871094 C 12.519531 8.152344 12.511719 8.441406 12.488281 8.730469 C 12.464844 9.023438 12.421875 9.324219 12.359375 9.636719 C 12.109375 10.886719 11.6875 12.167969 11.011719 13.277344 C 10.4375 14.214844 9.683594 15.027344 8.691406 15.59375 C 7.863281 16.070312 6.882812 16.421875 5.769531 16.667969 C 4.675781 16.910156 3.453125 17.042969 2.117188 17.089844 C 1.546875 17.179688 1.160156 17.339844 0.929688 17.535156 C 0.773438 17.664062 0.699219 17.8125 0.683594 17.964844 C 0.664062 18.128906 0.714844 18.3125 0.824219 18.503906 C 1.027344 18.859375 1.425781 19.21875 1.949219 19.503906 C 2.710938 19.921875 3.746094 20.132812 4.855469 20.179688 C 6.128906 20.234375 7.492188 20.078125 8.664062 19.777344 C 9.492188 19.5625 10.253906 19.257812 10.964844 18.855469 C 11.679688 18.453125 12.339844 17.957031 12.96875 17.371094 C 13.257812 17.097656 13.539062 16.808594 13.8125 16.496094 C 14.085938 16.1875 14.351562 15.855469 14.617188 15.492188 C 15.804688 13.234375 16.226562 11.53125 16.089844 10.234375 C 15.957031 8.988281 15.289062 8.113281 14.285156 7.46875 C 14.261719 7.460938 14.238281 7.445312 14.21875 7.425781 C 14.117188 7.339844 14.074219 7.300781 14.03125 7.265625 C 13.902344 7.160156 13.769531 7.050781 13.660156 6.941406 C 13.511719 6.796875 13.386719 6.652344 13.273438 6.511719 C 13.164062 6.375 13.058594 6.234375 12.960938 6.101562 C 12.894531 6.011719 12.835938 5.921875 12.78125 5.832031 C 12.726562 5.746094 12.675781 5.65625 12.632812 5.574219 L 12.632812 5.570312 Z M 12.609375 5.539062 "/>
<path style=" stroke:none;fill-rule:nonzero;fill:rgb(99.607843%,85.490196%,0%);fill-opacity:1;" d="M 16.746094 3.511719 L 16.039062 3.855469 C 15.800781 4.523438 16.242188 4.828125 16.574219 5.195312 C 16.683594 5.273438 16.777344 5.339844 16.859375 5.398438 C 17.492188 5.832031 17.558594 5.878906 17.894531 6.835938 C 18.023438 7.195312 18.132812 7.566406 18.222656 7.941406 C 18.3125 8.328125 18.382812 8.730469 18.433594 9.152344 C 18.628906 10.855469 18.621094 12.664062 18.210938 14.355469 C 17.867188 15.789062 17.234375 17.136719 16.203125 18.265625 C 15.339844 19.210938 14.230469 20.0625 12.910156 20.824219 C 11.609375 21.578125 10.101562 22.25 8.410156 22.847656 C 7.71875 23.199219 7.289062 23.558594 7.074219 23.90625 C 6.9375 24.132812 6.894531 24.351562 6.9375 24.550781 C 6.984375 24.769531 7.125 24.984375 7.34375 25.183594 C 7.753906 25.554688 8.40625 25.851562 9.195312 26.003906 C 10.34375 26.226562 11.753906 26.074219 13.195312 25.683594 C 14.847656 25.234375 16.523438 24.480469 17.898438 23.621094 C 18.871094 23.011719 19.71875 22.304688 20.460938 21.503906 C 21.203125 20.699219 21.847656 19.796875 22.40625 18.792969 C 22.664062 18.328125 22.90625 17.84375 23.125 17.328125 C 23.34375 16.828125 23.550781 16.292969 23.738281 15.722656 C 24.324219 12.351562 24.160156 10 23.445312 8.398438 C 22.761719 6.863281 21.546875 6.011719 19.996094 5.597656 C 19.960938 5.59375 19.929688 5.582031 19.894531 5.570312 C 19.730469 5.5 19.660156 5.472656 19.585938 5.441406 C 19.375 5.355469 19.164062 5.273438 18.976562 5.179688 C 18.730469 5.054688 18.507812 4.921875 18.300781 4.789062 C 18.105469 4.660156 17.914062 4.523438 17.730469 4.390625 C 17.613281 4.300781 17.5 4.214844 17.394531 4.125 C 17.285156 4.035156 17.1875 3.945312 17.097656 3.855469 L 17.097656 3.851562 C 17.082031 3.839844 17.019531 3.777344 16.964844 3.71875 C 16.871094 3.625 16.796875 3.546875 16.746094 3.511719 Z M 16.746094 3.511719 "/>
<path style=" stroke:none;fill-rule:nonzero;fill:rgb(99.215686%,94.901961%,70.588235%);fill-opacity:1;" d="M 10.824219 5.152344 L 11.363281 4.890625 C 11.46875 4.804688 11.585938 4.726562 11.707031 4.671875 C 11.808594 4.625 11.910156 4.589844 12.019531 4.566406 L 16.851562 2.199219 L 16.484375 1.34375 L 10.457031 4.410156 Z M 10.824219 5.152344 "/>
<path style=" stroke:none;fill-rule:nonzero;fill:rgb(47.843137%,18.039216%,0%);fill-opacity:1;" d="M 19.695312 8.351562 C 19.636719 8.109375 19.796875 7.867188 20.042969 7.8125 C 20.289062 7.757812 20.53125 7.914062 20.585938 8.15625 C 21.550781 12.472656 20.894531 15.726562 19.136719 18.261719 C 17.390625 20.78125 14.574219 22.558594 11.195312 23.949219 C 10.960938 24.046875 10.695312 23.9375 10.597656 23.703125 C 10.5 23.472656 10.609375 23.207031 10.84375 23.109375 C 14.082031 21.78125 16.757812 20.097656 18.382812 17.75 C 20 15.417969 20.597656 12.394531 19.695312 8.351562 Z M 19.695312 8.351562 "/>
<path style=" stroke:none;fill-rule:nonzero;fill:rgb(47.843137%,18.039216%,0%);fill-opacity:1;" d="M 13.40625 9.398438 C 13.421875 9.21875 13.585938 9.082031 13.769531 9.097656 C 13.953125 9.117188 14.085938 9.277344 14.070312 9.460938 C 13.773438 12.6875 12.582031 14.816406 10.785156 16.199219 C 9 17.570312 6.632812 18.1875 3.960938 18.410156 C 3.777344 18.425781 3.613281 18.289062 3.597656 18.105469 C 3.582031 17.921875 3.71875 17.761719 3.902344 17.746094 C 6.460938 17.53125 8.710938 16.953125 10.375 15.671875 C 12.027344 14.402344 13.125 12.421875 13.40625 9.398438 Z M 13.40625 9.398438 "/>
</g>
</svg>
