<?xml version="1.0" encoding="UTF-8"?>
<svg xmlns="http://www.w3.org/2000/svg" xmlns:xlink="http://www.w3.org/1999/xlink" width="27px" height="30px" viewBox="0 0 27 30" version="1.1">
<g id="surface1">
<path style=" stroke:none;fill-rule:nonzero;fill:rgb(50.588235%,28.235294%,19.607843%);fill-opacity:1;" d="M 0.332031 19.796875 C 0.3125 17.960938 1.003906 16.515625 2.058594 15.492188 C 2.648438 14.917969 3.355469 14.480469 4.109375 14.183594 C 4.855469 13.894531 5.65625 13.738281 6.449219 13.730469 C 7.960938 13.714844 9.445312 14.21875 10.488281 15.285156 C 10.839844 15.644531 11.125 16.019531 11.425781 16.414062 C 11.808594 16.917969 12.21875 17.457031 12.78125 17.964844 C 13.195312 18.34375 13.605469 18.636719 14.007812 18.847656 C 14.386719 19.042969 14.761719 19.164062 15.136719 19.207031 L 15.140625 19.207031 C 16.988281 19.417969 17.933594 18.042969 18.824219 16.75 C 19.554688 15.683594 20.257812 14.660156 21.421875 14.203125 C 21.902344 14.011719 22.402344 13.921875 22.898438 13.933594 C 23.40625 13.949219 23.902344 14.066406 24.363281 14.28125 C 25.15625 14.65625 25.746094 15.140625 26.160156 15.691406 C 26.585938 16.257812 26.828125 16.890625 26.925781 17.558594 C 27.046875 18.371094 26.949219 19.230469 26.722656 20.082031 C 26.117188 22.367188 24.714844 24.589844 22.980469 26.1875 C 21.921875 27.15625 20.710938 27.96875 19.410156 28.585938 C 17.765625 29.363281 15.964844 29.84375 14.136719 29.96875 C 12.382812 30.085938 10.601562 29.875 8.902344 29.285156 C 6.792969 28.554688 4.460938 27.148438 2.773438 25.3125 C 1.339844 23.746094 0.359375 21.867188 0.332031 19.796875 Z M 1.78125 2.902344 C 2.625 2.046875 3.699219 1.375 4.867188 0.910156 C 5.5 0.660156 6.144531 0.460938 6.800781 0.3125 C 9.464844 -0.285156 12.214844 -0.0117188 14.550781 1.042969 C 16.914062 2.105469 18.863281 3.964844 19.890625 6.515625 C 20.09375 7.015625 20.261719 7.546875 20.386719 8.105469 C 20.476562 8.492188 20.542969 8.886719 20.582031 9.28125 C 20.621094 9.65625 20.636719 10.035156 20.625 10.410156 C 20.597656 11.160156 20.46875 11.90625 20.179688 12.570312 C 19.914062 13.183594 19.511719 13.734375 18.9375 14.164062 C 18.539062 14.460938 18.097656 14.695312 17.636719 14.859375 C 16.847656 15.140625 15.984375 15.210938 15.160156 15.011719 C 14.324219 14.808594 13.535156 14.332031 12.917969 13.511719 C 12.617188 13.113281 12.355469 12.632812 12.152344 12.074219 L 12.15625 12.074219 C 11.855469 11.28125 11.492188 10.652344 11.070312 10.171875 C 10.664062 9.710938 10.203125 9.378906 9.695312 9.164062 C 9.378906 9.035156 9.050781 8.953125 8.703125 8.914062 C 8.34375 8.878906 7.964844 8.890625 7.554688 8.9375 C 7.132812 8.988281 6.691406 9.078125 6.226562 9.203125 C 5.75 9.328125 5.257812 9.484375 4.753906 9.65625 C 4.703125 9.679688 4.644531 9.695312 4.585938 9.703125 C 3.777344 9.855469 3.074219 9.847656 2.476562 9.707031 C 1.769531 9.542969 1.210938 9.195312 0.808594 8.726562 C 0.441406 8.296875 0.210938 7.832031 0.101562 7.34375 C -0.015625 6.828125 0.00390625 6.300781 0.132812 5.78125 C 0.398438 4.679688 0.988281 3.710938 1.78125 2.902344 Z M 1.78125 2.902344 "/>
<path style=" stroke:none;fill-rule:evenodd;fill:rgb(97.647059%,89.803922%,62.745098%);fill-opacity:1;" d="M 1.160156 19.785156 C 1.097656 14.730469 7.246094 13.15625 9.898438 15.855469 C 10.648438 16.617188 11.164062 17.613281 12.226562 18.570312 C 13.152344 19.410156 14.09375 19.917969 15.046875 20.023438 C 18.898438 20.460938 19.371094 15.894531 21.726562 14.964844 C 22.480469 14.664062 23.289062 14.683594 24.007812 15.023438 C 25.34375 15.65625 25.953125 16.605469 26.109375 17.679688 C 26.335938 19.222656 25.640625 21.035156 24.824219 22.53125 C 23.554688 24.855469 21.484375 26.695312 19.058594 27.84375 C 16.019531 29.28125 12.425781 29.640625 9.179688 28.511719 C 5.535156 27.25 1.207031 23.867188 1.160156 19.785156 Z M 5.171875 1.671875 C 3.132812 2.484375 1.417969 3.980469 0.929688 5.976562 C 0.742188 6.75 0.855469 7.515625 1.4375 8.199219 C 1.992188 8.847656 2.992188 9.167969 4.425781 8.898438 C 5.535156 8.519531 6.53125 8.230469 7.449219 8.121094 C 8.375 8.011719 9.21875 8.078125 10.007812 8.410156 C 11.257812 8.933594 12.257812 10.011719 12.925781 11.800781 C 13.984375 14.734375 16.726562 14.785156 18.4375 13.507812 C 19.40625 12.78125 19.753906 11.597656 19.796875 10.378906 C 19.820312 9.691406 19.738281 8.976562 19.582031 8.285156 C 18.140625 1.960938 11.09375 -0.683594 5.171875 1.671875 Z M 5.171875 1.671875 "/>
<path style=" stroke:none;fill-rule:nonzero;fill:rgb(50.588235%,28.235294%,19.607843%);fill-opacity:1;" d="M 3.523438 6.730469 C 3.378906 6.90625 3.113281 6.929688 2.941406 6.785156 C 2.765625 6.636719 2.738281 6.378906 2.886719 6.207031 C 3.582031 5.367188 4.386719 4.800781 5.289062 4.492188 C 6.1875 4.1875 7.179688 4.144531 8.253906 4.359375 C 8.476562 4.402344 8.621094 4.617188 8.578125 4.839844 C 8.535156 5.0625 8.316406 5.210938 8.09375 5.164062 C 7.160156 4.976562 6.3125 5.011719 5.558594 5.269531 C 4.800781 5.527344 4.121094 6.011719 3.523438 6.730469 Z M 5.007812 18.023438 C 4.960938 17.804688 5.101562 17.582031 5.324219 17.535156 C 5.550781 17.488281 5.769531 17.628906 5.816406 17.851562 C 5.867188 18.089844 5.941406 18.324219 6.027344 18.550781 C 6.644531 20.175781 8.105469 21.558594 9.941406 22.425781 C 11.789062 23.296875 14 23.644531 16.105469 23.1875 C 16.503906 23.101562 16.894531 22.988281 17.277344 22.84375 C 17.492188 22.765625 17.730469 22.871094 17.8125 23.082031 C 17.894531 23.296875 17.785156 23.53125 17.570312 23.613281 C 17.144531 23.773438 16.714844 23.898438 16.277344 23.996094 C 13.988281 24.488281 11.582031 24.117188 9.582031 23.167969 C 7.5625 22.214844 5.949219 20.671875 5.25 18.84375 C 5.152344 18.570312 5.070312 18.296875 5.007812 18.023438 Z M 21.183594 21.25 C 21.023438 21.414062 20.761719 21.417969 20.597656 21.257812 C 20.433594 21.097656 20.429688 20.839844 20.589844 20.675781 C 21.011719 20.246094 21.378906 19.789062 21.667969 19.304688 C 21.957031 18.824219 22.175781 18.316406 22.308594 17.769531 C 22.363281 17.546875 22.585938 17.414062 22.808594 17.464844 C 23.027344 17.519531 23.164062 17.742188 23.113281 17.960938 C 22.960938 18.589844 22.707031 19.175781 22.378906 19.722656 C 22.050781 20.269531 21.648438 20.773438 21.183594 21.25 Z M 21.183594 21.25 "/>
</g>
</svg>
