<?xml version="1.0" encoding="UTF-8"?>
<svg xmlns="http://www.w3.org/2000/svg" xmlns:xlink="http://www.w3.org/1999/xlink" width="28px" height="31px" viewBox="0 0 28 30" version="1.1">
<g id="surface1">
<path style=" stroke:none;fill-rule:nonzero;fill:rgb(100%,100%,66.666667%);fill-opacity:1;" d="M 10.773438 5.304688 C 16.824219 4.5625 21.828125 6.714844 22.777344 12.78125 C 14.054688 26.441406 -5.261719 8.089844 10.773438 5.304688 Z M 10.773438 5.304688 "/>
<path style=" stroke:none;fill-rule:nonzero;fill:rgb(85.882353%,85.882353%,22.352941%);fill-opacity:1;" d="M 12.523438 27.875 C 11.273438 27.710938 9.863281 26.746094 7.429688 24.382812 C 4.507812 21.554688 3.949219 20.703125 3.230469 17.964844 C 2.117188 13.734375 2.148438 13.445312 4.039062 9.957031 C 6.976562 4.546875 9.214844 3.085938 14.578125 3.085938 C 17.585938 3.085938 20.300781 3.960938 21.601562 5.347656 C 24.230469 8.148438 24.785156 9.542969 24.976562 13.828125 C 25.101562 16.617188 25.429688 18.40625 25.902344 18.867188 C 26.304688 19.257812 26.632812 20.085938 26.632812 20.703125 C 26.632812 21.832031 24.378906 24.636719 23.46875 24.636719 C 23.199219 24.636719 21.960938 25.324219 20.722656 26.164062 C 18.421875 27.722656 15.679688 28.296875 12.523438 27.875 Z M 13.460938 14.378906 C 13.6875 14.019531 14.78125 13.65625 15.890625 13.570312 C 17.976562 13.410156 19.066406 12.480469 19.601562 10.398438 C 20.449219 8.027344 18.308594 8.257812 17.414062 7.277344 C 15.203125 7.078125 17.019531 5.765625 16.003906 5.660156 C 15.519531 5.65625 13.914062 5.925781 12.4375 6.257812 C 10.328125 6.730469 9.949219 6.683594 9.710938 7.617188 C 9.386719 8.875 8.925781 8.898438 7.925781 8.722656 C 7.066406 8.078125 6.722656 8.765625 7.1875 9.558594 C 7.796875 10.269531 7.996094 12.363281 7.996094 14.132812 C 7.996094 15.519531 12.625 15.695312 13.460938 14.378906 Z M 13.460938 14.378906 "/>
<path style=" stroke:none;fill-rule:nonzero;fill:rgb(26.27451%,26.27451%,26.27451%);fill-opacity:1;" d="M 10.507812 27.289062 C 9.519531 26.816406 8.039062 25.574219 7.222656 24.527344 L 5.738281 22.632812 L 7.445312 23.492188 C 8.386719 23.964844 9.3125 24.601562 9.503906 24.902344 C 9.695312 25.207031 10.230469 25.453125 10.691406 25.453125 C 11.15625 25.453125 11.417969 25.269531 11.277344 25.042969 C 11.136719 24.816406 13.199219 24.582031 15.863281 24.519531 C 20.46875 24.410156 25.46875 23.199219 25.46875 22.191406 C 25.46875 21.949219 25.851562 21.605469 26.324219 21.429688 C 27.957031 20.820312 25.304688 23.722656 23.414062 24.621094 C 22.4375 25.082031 21.554688 25.644531 21.453125 25.867188 C 21.351562 26.089844 20.472656 26.699219 19.5 27.226562 C 17.300781 28.414062 12.914062 28.445312 10.507812 27.289062 Z M 3.726562 20.929688 C 2.945312 20.015625 1.976562 15.890625 1.960938 13.398438 C 1.953125 12.203125 2.386719 10.945312 3.066406 10.179688 C 3.683594 9.488281 4.1875 8.601562 4.1875 8.207031 C 4.1875 6.960938 7.53125 3.722656 9.394531 3.160156 C 15.523438 1.308594 19.070312 2.011719 22.316406 5.71875 C 22.664062 6.117188 23.425781 6.949219 24.007812 7.570312 C 24.839844 8.457031 25.132812 9.8125 25.347656 13.804688 C 25.496094 16.609375 25.8125 18.90625 26.042969 18.90625 C 26.277344 18.90625 26.613281 19.273438 26.789062 19.726562 C 27.214844 20.800781 27.015625 20.757812 25.453125 19.441406 C 24.308594 18.476562 24.160156 17.894531 24.25 14.777344 C 24.328125 11.992188 24.074219 10.71875 23.089844 8.9375 C 20.503906 4.257812 17.386719 2.765625 12.167969 3.707031 C 8.101562 4.4375 6.046875 5.980469 4.347656 9.578125 C 3.171875 12.074219 3.015625 12.988281 3.339844 15.578125 C 3.546875 17.257812 4.074219 19.179688 4.511719 19.84375 C 4.949219 20.507812 5.308594 21.183594 5.308594 21.34375 C 5.308594 21.890625 4.324219 21.636719 3.726562 20.929688 Z M 3.726562 20.929688 "/>
</g>
</svg>
