<?xml version="1.0" encoding="UTF-8"?>
<svg xmlns="http://www.w3.org/2000/svg" xmlns:xlink="http://www.w3.org/1999/xlink" width="28px" height="30px" viewBox="0 0 28 30" version="1.1">
<g id="surface1">
<path style=" stroke:none;fill-rule:evenodd;fill:rgb(0%,0%,0%);fill-opacity:1;" d="M 5.023438 14.511719 C 6.078125 14.519531 6.632812 14.425781 7.339844 14.546875 C 9.609375 14.945312 11.171875 16.179688 12.707031 19.265625 C 13.75 21.359375 12.40625 25.804688 11.605469 27.964844 L 11.019531 29.210938 C 11.019531 30.191406 12.78125 30.296875 13.074219 29.210938 C 13.324219 28.433594 13.546875 27.839844 13.738281 27.3125 C 14.527344 25.160156 14.621094 23.878906 14.914062 21.722656 C 15.03125 20.855469 15.230469 19.976562 15.640625 19.59375 C 16.664062 18.632812 17.460938 16.875 18.796875 15.953125 C 19.71875 15.316406 21.539062 15.199219 23.269531 15.164062 C 23.285156 14.644531 22.976562 14.289062 22.523438 14.128906 C 20.519531 13.277344 18.558594 13.945312 16.609375 15.320312 C 16.15625 15.640625 16.242188 15.714844 16.015625 15.144531 C 15.605469 14.105469 15.394531 12.785156 15.480469 11.066406 C 15.414062 10.664062 15.441406 10.363281 15.128906 10.074219 C 15.015625 9.972656 14.917969 9.933594 14.828125 9.964844 C 14.609375 10.050781 14.441406 10.878906 14.355469 11.152344 C 14.253906 11.492188 13.546875 14.222656 13.175781 14.960938 C 13.019531 15.277344 13.011719 15.121094 12.878906 14.933594 C 11.683594 13.21875 6.925781 10.628906 5.023438 14.511719 Z M 8.769531 6.0625 C 8.746094 6.121094 8.71875 6.175781 8.683594 6.222656 C 8.691406 6.671875 8.773438 7.132812 8.894531 7.574219 C 9.085938 8.296875 9.386719 8.972656 9.648438 9.488281 C 9.816406 9.808594 9.6875 10.203125 9.359375 10.367188 C 9.035156 10.53125 8.636719 10.40625 8.472656 10.082031 C 8.179688 9.503906 7.84375 8.742188 7.617188 7.914062 C 7.503906 7.480469 7.417969 7.03125 7.382812 6.578125 C 4.617188 6.507812 2.835938 7.625 1.96875 9.160156 C 1.578125 9.855469 1.363281 10.628906 1.324219 11.421875 C 1.285156 12.222656 1.417969 13.035156 1.726562 13.796875 C 2.484375 15.679688 4.300781 17.210938 7.085938 17.308594 C 7.449219 17.320312 7.734375 17.621094 7.722656 17.980469 C 7.710938 18.339844 7.40625 18.625 7.042969 18.613281 C 3.65625 18.496094 1.4375 16.601562 0.503906 14.28125 C 0.128906 13.347656 -0.0390625 12.34375 0.0117188 11.359375 C 0.0585938 10.367188 0.328125 9.390625 0.816406 8.519531 C 1.9375 6.542969 4.195312 5.113281 7.660156 5.277344 C 9.09375 1.609375 11.820312 0.113281 14.605469 0.0195312 C 16.425781 -0.0429688 18.265625 0.511719 19.761719 1.457031 C 21.28125 2.417969 22.457031 3.789062 22.933594 5.339844 C 23.074219 5.800781 23.152344 6.273438 23.164062 6.753906 C 24.265625 7.046875 25.5625 7.835938 26.523438 8.945312 C 27.382812 9.933594 27.992188 11.183594 28.003906 12.582031 C 28.011719 13.679688 27.621094 14.835938 26.964844 15.816406 C 26.476562 16.546875 25.839844 17.183594 25.109375 17.644531 C 24.359375 18.121094 23.503906 18.40625 22.589844 18.414062 C 21.734375 18.417969 20.84375 18.171875 19.972656 17.59375 C 19.667969 17.394531 19.585938 16.992188 19.785156 16.6875 C 19.984375 16.386719 20.394531 16.304688 20.699219 16.503906 C 21.339844 16.925781 21.984375 17.105469 22.585938 17.101562 C 23.226562 17.097656 23.847656 16.886719 24.402344 16.535156 C 24.976562 16.175781 25.476562 15.667969 25.863281 15.089844 C 26.382812 14.3125 26.691406 13.417969 26.6875 12.582031 C 26.679688 11.535156 26.199219 10.570312 25.527344 9.796875 C 24.792969 8.949219 23.839844 8.335938 23.015625 8.066406 C 22.710938 9.304688 21.910156 10.554688 20.476562 11.730469 C 20.195312 11.957031 19.78125 11.917969 19.550781 11.640625 C 19.320312 11.359375 19.363281 10.949219 19.640625 10.71875 C 21.675781 9.054688 22.148438 7.261719 21.671875 5.714844 C 21.292969 4.472656 20.320312 3.355469 19.054688 2.554688 C 17.769531 1.742188 16.199219 1.265625 14.644531 1.320312 C 12.28125 1.40625 9.949219 2.75 8.769531 6.0625 Z M 8.769531 6.0625 "/>
</g>
</svg>
