<?xml version="1.0" encoding="UTF-8"?>
<svg xmlns="http://www.w3.org/2000/svg" xmlns:xlink="http://www.w3.org/1999/xlink" width="24px" height="37px" viewBox="0 0 24 37" version="1.1">
<defs>
<filter id="alpha" filterUnits="objectBoundingBox" x="0%" y="0%" width="100%" height="100%">
  <feColorMatrix type="matrix" in="SourceGraphic" values="0 0 0 0 1 0 0 0 0 1 0 0 0 0 1 0 0 0 1 0"/>
</filter>
<mask id="mask0">
  <g filter="url(#alpha)">
<rect x="0" y="0" width="24" height="37" style="fill:rgb(0%,0%,0%);fill-opacity:0.65098;stroke:none;"/>
  </g>
</mask>
<radialGradient id="radial0" gradientUnits="userSpaceOnUse" cx="12.5" cy="2.3351" fx="12.5" fy="2.3351" r="9.9625" gradientTransform="matrix(-0.790755,0.683333,0.702369,0.782288,13.835475,-5.595157)">
<stop offset="0" style="stop-color:rgb(100%,100%,100%);stop-opacity:1;"/>
<stop offset="1" style="stop-color:rgb(0%,57.254902%,0%);stop-opacity:1;"/>
</radialGradient>
<clipPath id="clip1">
  <rect x="0" y="0" width="24" height="37"/>
</clipPath>
<g id="surface5" clip-path="url(#clip1)">
<path style="fill-rule:nonzero;fill:rgb(0%,62.745098%,0%);fill-opacity:1;stroke-width:1;stroke-linecap:butt;stroke-linejoin:miter;stroke:rgb(0%,0%,0%);stroke-opacity:1;stroke-miterlimit:4;" d="M 12.498668 1013.89885 C 5.883635 1013.901745 0.519238 1019.255043 0.521638 1025.861202 C 0.518651 1030.59659 3.293396 1034.682657 7.292656 1036.61963 L 12.498831 1050.858155 C 14.434973 1046.128876 16.186367 1041.334976 17.904791 1036.525544 C 21.794438 1034.546061 24.479274 1030.517866 24.480648 1025.861174 C 24.478248 1019.255015 19.117887 1013.899963 12.498668 1013.89885 Z M 12.498668 1013.89885 " transform="matrix(-0.961929,0.0293481,0.0299147,0.943711,-6.666984,-956.522391)"/>
<path style=" stroke:none;fill-rule:nonzero;fill:url(#radial0);" d="M 4.421875 18.460938 C 8.078125 22.5625 14.429688 22.984375 18.613281 19.398438 C 22.796875 15.816406 23.226562 9.582031 19.574219 5.480469 C 15.917969 1.375 9.566406 0.953125 5.382812 4.539062 C 1.199219 8.121094 0.769531 14.355469 4.421875 18.460938 Z M 4.421875 18.460938 "/>
</g>
</defs>
<g id="surface1">
<use xlink:href="#surface5" mask="url(#mask0)"/>
</g>
</svg>
