<?xml version="1.0" encoding="UTF-8"?>
<svg xmlns="http://www.w3.org/2000/svg" xmlns:xlink="http://www.w3.org/1999/xlink" width="px" height="27px" viewBox="0 0 32 27" version="1.1">
<g id="surface1">
<path style=" stroke:none;fill-rule:evenodd;fill:rgb(36.862745%,60%,4.313725%);fill-opacity:1;" d="M 19.972656 2.230469 C 20.515625 1.71875 21.132812 1.304688 21.871094 1.042969 C 23.792969 0.363281 26.347656 0.917969 28.085938 1.878906 C 29.480469 2.648438 30.925781 3.851562 31.976562 5.128906 C 30.53125 5.695312 28.507812 5.964844 26.3125 6.101562 C 24.632812 6.203125 23.085938 5.949219 21.589844 5.1875 L 21.660156 5.269531 L 21.597656 5.226562 C 20.8125 4.675781 20.050781 4.121094 19.359375 3.550781 L 19.960938 2.25 Z M 19.972656 2.230469 "/>
<path style=" stroke:none;fill-rule:evenodd;fill:rgb(49.803922%,34.117647%,23.529412%);fill-opacity:1;" d="M 19.941406 2.261719 L 19.972656 2.230469 L 19.964844 2.25 L 19.363281 3.546875 C 18.941406 3.199219 18.523438 2.804688 18.128906 2.480469 L 19.15625 0.417969 C 19.34375 0.0429688 19.800781 -0.109375 20.175781 0.078125 C 20.546875 0.265625 20.699219 0.726562 20.511719 1.101562 Z M 19.941406 2.261719 "/>
<path style=" stroke:none;fill-rule:evenodd;fill:rgb(100%,65.490196%,7.058824%);fill-opacity:1;" d="M 21.386719 7.101562 C 21.015625 6.492188 20.5625 5.910156 20.027344 5.367188 C 19.496094 4.835938 18.882812 4.332031 18.167969 3.867188 C 16.105469 3.09375 14.261719 2.882812 12.625 3.136719 C 10.875 3.40625 9.351562 4.214844 8.027344 5.449219 C 5.5625 7.757812 5.4375 9.628906 5.28125 11.945312 C 5.214844 12.90625 5.148438 13.9375 4.925781 15.113281 C 4.675781 16.417969 4.292969 17.570312 3.8125 18.566406 C 3.304688 19.625 2.683594 20.5 1.992188 21.1875 C 1.410156 21.976562 1.191406 22.632812 1.355469 23.15625 C 1.359375 23.164062 1.359375 23.171875 1.363281 23.179688 C 1.542969 23.714844 2.144531 24.195312 3.179688 24.609375 C 3.195312 24.613281 3.207031 24.617188 3.21875 24.625 C 6.621094 25.976562 10.144531 26.039062 13.277344 24.96875 C 16.386719 23.90625 19.109375 21.714844 20.925781 18.542969 C 22.019531 16.632812 22.703125 14.5625 22.78125 12.5 C 22.851562 10.664062 22.433594 8.824219 21.386719 7.101562 Z M 21.589844 5.1875 C 21.921875 5.585938 22.21875 6 22.476562 6.429688 C 23.667969 8.382812 24.136719 10.464844 24.058594 12.546875 C 23.972656 14.832031 23.222656 17.101562 22.035156 19.1875 C 20.050781 22.640625 17.082031 25.03125 13.6875 26.191406 C 10.277344 27.359375 6.445312 27.289062 2.753906 25.824219 C 2.742188 25.816406 2.730469 25.816406 2.714844 25.808594 C 1.296875 25.246094 0.449219 24.503906 0.148438 23.582031 C 0.140625 23.574219 0.140625 23.558594 0.132812 23.546875 C -0.164062 22.59375 0.132812 21.535156 0.996094 20.382812 C 1.011719 20.355469 1.035156 20.332031 1.058594 20.308594 C 1.660156 19.71875 2.207031 18.949219 2.660156 18.007812 C 3.09375 17.109375 3.4375 16.0625 3.664062 14.871094 C 3.875 13.773438 3.941406 12.78125 4 11.859375 C 4.175781 9.257812 4.316406 7.160156 7.15625 4.507812 C 8.660156 3.101562 10.410156 2.175781 12.425781 1.863281 C 14.144531 1.597656 16.042969 1.777344 18.132812 2.488281 C 19.503906 3.164062 20.679688 4.042969 21.589844 5.1875 Z M 21.589844 5.1875 "/>
<path style=" stroke:none;fill-rule:evenodd;fill:rgb(96.078431%,67.45098%,19.215686%);fill-opacity:1;" d="M 21.777344 6.875 C 21.386719 6.246094 20.917969 5.648438 20.355469 5.089844 C 19.804688 4.542969 19.160156 4.023438 18.414062 3.546875 C 16.257812 2.753906 14.335938 2.535156 12.621094 2.796875 C 10.796875 3.074219 9.203125 3.90625 7.820312 5.175781 C 5.242188 7.546875 5.109375 9.46875 4.949219 11.851562 C 4.882812 12.839844 4.8125 13.902344 4.578125 15.109375 C 4.320312 16.449219 3.921875 17.636719 3.417969 18.660156 C 2.882812 19.746094 2.230469 20.652344 1.515625 21.355469 C 0.90625 22.164062 0.675781 22.839844 0.847656 23.378906 C 0.851562 23.386719 0.855469 23.394531 0.855469 23.402344 C 1.042969 23.957031 1.671875 24.445312 2.753906 24.871094 C 2.769531 24.875 2.78125 24.878906 2.796875 24.886719 C 6.347656 26.277344 10.03125 26.34375 13.304688 25.242188 C 16.554688 24.148438 19.394531 21.894531 21.292969 18.632812 C 22.4375 16.671875 23.152344 14.542969 23.234375 12.421875 C 23.304688 10.539062 22.871094 8.648438 21.777344 6.875 Z M 21.777344 6.875 "/>
<path style=" stroke:none;fill-rule:evenodd;fill:rgb(32.54902%,47.45098%,9.411765%);fill-opacity:1;" d="M 20.152344 3.027344 C 24.445312 3.21875 25.582031 3.011719 29.597656 4.585938 C 25.347656 4.398438 24.210938 4.300781 20.152344 3.027344 Z M 20.152344 3.027344 "/>
</g>
</svg>
