<?xml version="1.0" encoding="UTF-8"?>
<svg xmlns="http://www.w3.org/2000/svg" xmlns:xlink="http://www.w3.org/1999/xlink" width="px" height="27px" viewBox="0 0 28 27" version="1.1">
<g id="surface1">
<path style="fill-rule:nonzero;fill:rgb(99.607843%,62.745098%,11.764706%);fill-opacity:1;stroke-width:0.929052;stroke-linecap:butt;stroke-linejoin:miter;stroke:rgb(0%,0%,0%);stroke-opacity:1;stroke-miterlimit:4;" d="M 56.865234 361.631944 C 53.876953 353.90625 50.097656 345.052083 52.734375 337.239583 C 54.492188 332.03125 49.394531 329.427083 49.130859 324.045139 C 48.427734 309.548611 50.097656 295.052083 49.394531 280.555556 C 49.130859 274.826389 50.009766 269.184028 52.646484 263.802083 C 55.546875 257.8125 60.908203 252.951389 62.753906 246.527778 C 64.6875 240.017361 67.324219 233.59375 67.851562 226.822917 C 68.554688 217.708333 64.6875 207.8125 69.345703 199.392361 C 73.212891 192.534722 81.914062 189.236111 83.847656 181.163194 C 85.341797 174.913194 92.109375 172.482639 95.449219 167.621528 C 100.986328 159.722222 100.283203 144.965278 109.863281 142.708333 C 116.894531 141.059028 114.345703 133.59375 118.125 128.993056 C 125.595703 119.878472 132.451172 109.722222 142.03125 102.951389 C 144.316406 101.302083 154.160156 97.569444 150.732422 97.482639 C 148.886719 97.482639 144.667969 98.784722 148.886719 97.135417 C 154.511719 94.878472 161.103516 95.572917 166.289062 92.447917 C 170.595703 89.84375 173.671875 87.065972 179.033203 85.243056 C 184.482422 83.420139 188.613281 82.986111 194.150391 80.121528 C 204.169922 75 216.5625 75.173611 225.527344 68.142361 C 230.273438 64.322917 233.964844 55.034722 239.853516 56.684028 C 246.005859 58.246528 249.082031 50.954861 254.443359 50 C 269.384766 47.395833 284.501953 50.260417 299.53125 47.65625 C 313.417969 45.3125 327.392578 41.579861 341.630859 42.881944 C 350.244141 43.663194 358.945312 42.013889 367.470703 44.097222 C 387.421875 48.958333 404.208984 61.545139 423.105469 69.010417 C 429.521484 71.527778 437.958984 72.048611 442.089844 77.951389 C 446.835938 84.635417 455.537109 85.9375 461.513672 91.319444 C 470.566406 99.479167 479.091797 108.072917 489.814453 114.149306 C 497.724609 118.663194 510.732422 120.399306 512.490234 129.427083 C 513.369141 134.201389 516.357422 137.586806 520.3125 140.972222 C 525.761719 145.572917 529.804688 152.430556 530.068359 159.288194 C 530.332031 165.972222 537.363281 166.40625 538.945312 172.309028 C 540.966797 180.208333 546.679688 186.545139 550.195312 193.75 C 553.183594 199.739583 561.708984 202.777778 561.621094 209.635417 C 561.621094 216.579861 565.576172 222.569444 565.751953 229.6875 C 566.015625 240.277778 565.400391 250.868056 565.3125 261.545139 C 565.224609 278.385417 565.751953 295.3125 565.224609 312.239583 C 564.960938 319.791667 560.742188 329.079861 565.576172 335.15625 C 568.828125 339.236111 568.740234 344.53125 568.740234 349.479167 C 568.828125 361.284722 571.201172 373.4375 568.125 384.809028 C 565.136719 395.572917 563.90625 407.465278 557.402344 416.579861 C 556.347656 418.055556 553.095703 424.826389 552.744141 422.916667 C 552.216797 419.878472 547.734375 426.041667 546.679688 427.604167 C 543.603516 432.291667 541.669922 436.979167 538.330078 442.1875 C 535.517578 446.701389 534.550781 451.996528 529.804688 455.642361 C 527.431641 457.465278 522.333984 465.104167 522.070312 462.586806 C 521.71875 459.809028 518.994141 466.927083 518.115234 467.96875 C 514.6875 471.788194 508.623047 473.524306 505.986328 477.864583 C 503.613281 481.770833 499.482422 481.770833 496.318359 486.371528 C 493.681641 490.277778 490.693359 496.180556 485.683594 496.440972 C 479.53125 496.701389 479.003906 505.381944 473.818359 506.857639 C 468.544922 508.333333 463.623047 510.763889 458.173828 512.760417 C 452.197266 515.017361 448.769531 521.354167 441.826172 521.788194 C 437.34375 522.048611 437.431641 527.170139 431.542969 527.34375 C 424.6875 527.517361 420.117188 533.420139 414.316406 536.197917 C 406.318359 540.104167 395.068359 539.149306 389.443359 546.180556 C 385.927734 550.607639 372.568359 557.204861 375.205078 552.517361 C 376.435547 550.347222 367.119141 551.996528 364.394531 552.951389 C 358.857422 555.034722 350.595703 550.260417 347.431641 554.947917 C 344.003906 559.982639 337.324219 558.246528 332.138672 558.246528 C 315.703125 558.246528 299.179688 557.725694 282.65625 558.159722 C 270.527344 558.506944 257.695312 557.8125 246.708984 552.690972 C 242.666016 550.868056 238.710938 549.131944 234.316406 548.177083 C 222.802734 545.659722 211.464844 536.631944 200.126953 539.84375 C 195.292969 541.232639 191.425781 537.413194 187.03125 536.024306 C 182.460938 534.461806 180 530.121528 176.308594 528.385417 C 171.650391 526.215278 167.871094 524.131944 162.597656 521.354167 C 152.314453 515.972222 144.228516 507.204861 136.757812 498.524306 C 128.935547 489.409722 116.367188 482.291667 114.169922 470.572917 C 113.027344 464.583333 108.017578 461.284722 104.501953 456.770833 C 100.634766 451.736111 101.865234 443.402778 96.943359 439.670139 C 92.460938 436.284722 89.033203 431.944444 87.363281 426.475694 C 85.869141 421.354167 81.474609 416.753472 82.001953 411.284722 C 82.792969 404.513889 77.431641 400.434028 74.091797 393.923611 C 70.400391 386.892361 63.544922 381.944444 60.556641 374.045139 C 59.589844 371.440972 53.085938 366.232639 56.25 362.760417 C 57.392578 361.631944 56.689453 360.763889 56.865234 361.631944 Z M 56.865234 361.631944 " transform="matrix(0.0444444,0,0,0.045,0,0)"/>
<path style="fill-rule:nonzero;fill:rgb(96.862745%,89.411765%,37.647059%);fill-opacity:1;stroke-width:1;stroke-linecap:butt;stroke-linejoin:miter;stroke:rgb(0%,0%,0%);stroke-opacity:1;stroke-miterlimit:4;" d="M 74.53125 350.78125 C 71.982422 345.399306 71.279297 339.583333 70.927734 333.506944 C 70.664062 328.993056 67.5 326.041667 67.324219 320.659722 C 67.060547 307.899306 68.378906 295.138889 67.675781 282.291667 C 67.412109 276.996528 68.291016 271.701389 70.664062 266.753472 C 73.476562 261.111111 78.398438 256.597222 80.15625 250.607639 C 81.914062 244.618056 84.375 238.628472 84.902344 232.291667 C 85.605469 223.871528 81.914062 214.583333 86.308594 206.770833 C 89.912109 200.347222 98.085938 197.395833 99.84375 189.84375 C 101.25 183.940972 107.578125 181.770833 110.742188 177.256944 C 115.839844 169.878472 115.224609 156.163194 124.189453 153.993056 C 130.693359 152.430556 128.320312 145.572917 131.923828 141.232639 C 138.867188 132.725694 145.283203 123.350694 154.248047 117.013889 C 156.357422 115.538194 165.498047 111.979167 162.246094 111.979167 C 160.576172 111.979167 156.621094 113.107639 160.576172 111.545139 C 165.849609 109.548611 172.001953 110.15625 176.835938 107.291667 C 180.878906 104.861111 183.691406 102.256944 188.701172 100.520833 C 193.798828 98.871528 197.666016 98.4375 202.851562 95.833333 C 212.167969 91.059028 223.769531 91.145833 232.119141 84.635417 C 236.601562 81.076389 239.941406 72.482639 245.478516 73.958333 C 251.191406 75.434028 254.091797 68.663194 259.189453 67.708333 C 273.076172 65.277778 287.226562 67.96875 301.201172 65.538194 C 314.208984 63.368056 327.216797 59.895833 340.488281 61.111111 C 348.574219 61.805556 356.660156 60.243056 364.658203 62.239583 C 383.291016 66.753472 398.935547 78.472222 416.513672 85.416667 C 422.578125 87.760417 430.488281 88.28125 434.355469 93.75 C 438.75 99.913194 446.835938 101.215278 452.460938 106.25 C 460.898438 113.715278 468.808594 121.788194 478.916016 127.430556 C 486.298828 131.597222 498.339844 133.246528 500.009766 141.666667 C 500.888672 146.09375 503.613281 149.21875 507.392578 152.430556 C 512.402344 156.684028 516.181641 163.020833 516.445312 169.444444 C 516.708984 175.607639 523.212891 176.128472 524.707031 181.597222 C 526.640625 188.888889 531.914062 194.791667 535.253906 201.5625 C 537.978516 207.118056 545.976562 209.982639 545.888672 216.319444 C 545.888672 222.829861 549.580078 228.385417 549.755859 234.982639 C 549.931641 244.878472 549.404297 254.774306 549.316406 264.583333 C 549.316406 280.381944 549.755859 296.09375 549.228516 311.805556 C 549.052734 318.836806 545.097656 327.430556 549.580078 333.072917 C 552.65625 336.892361 552.568359 341.840278 552.568359 346.440972 C 552.65625 357.465278 554.853516 368.75 551.953125 379.340278 C 549.228516 389.322917 548.085938 400.434028 541.933594 408.940972 C 540.966797 410.243056 537.978516 416.579861 537.626953 414.84375 C 537.099609 411.979167 532.96875 417.708333 531.914062 419.184028 C 529.013672 423.524306 527.255859 427.951389 524.179688 432.8125 C 521.542969 436.979167 520.664062 441.927083 516.269531 445.225694 C 513.984375 446.961806 509.238281 454.166667 508.974609 451.736111 C 508.623047 449.131944 506.162109 455.729167 505.283203 456.770833 C 502.03125 460.329861 496.494141 461.892361 493.945312 465.972222 C 491.748047 469.618056 487.880859 469.618056 484.980469 473.871528 C 482.431641 477.517361 479.619141 482.986111 475.048828 483.246528 C 469.248047 483.506944 468.808594 491.579861 463.886719 492.881944 C 458.964844 494.357639 454.394531 496.527778 449.296875 498.4375 C 443.759766 500.520833 440.507812 505.902778 434.091797 506.857639 C 429.873047 507.465278 429.609375 511.631944 423.896484 512.065972 C 417.744141 512.5 413.613281 517.708333 408.427734 520.225694 C 400.869141 523.871528 390.410156 523.003472 385.224609 529.513889 C 381.884766 533.680556 369.404297 539.84375 371.865234 535.503472 C 373.007812 533.420139 364.306641 534.982639 361.757812 535.850694 C 356.660156 537.760417 348.925781 533.333333 345.9375 537.760417 C 342.773438 542.361111 336.533203 540.711806 331.699219 540.798611 C 316.318359 540.798611 300.9375 540.277778 285.46875 540.711806 C 274.130859 541.059028 262.177734 540.364583 251.894531 535.590278 C 248.115234 533.854167 244.423828 532.291667 240.292969 531.423611 C 229.658203 529.079861 219.023438 520.659722 208.388672 523.611111 C 203.90625 524.913194 200.302734 521.440972 196.171875 520.052083 C 191.953125 518.663194 189.580078 514.583333 186.152344 513.020833 C 181.845703 510.9375 178.242188 509.027778 173.408203 506.423611 C 163.828125 501.388889 156.181641 493.315972 149.238281 485.15625 C 141.943359 476.736111 130.166016 470.138889 128.144531 459.114583 C 127.089844 453.559028 122.431641 450.520833 119.179688 446.267361 C 115.576172 441.666667 116.71875 433.854167 112.060547 430.381944 C 107.929688 427.256944 104.677734 423.263889 103.183594 418.142361 C 101.777344 413.368056 97.646484 409.114583 98.173828 403.993056 C 98.876953 397.743056 93.955078 393.923611 90.703125 387.847222 C 87.451172 381.684028 87.978516 371.614583 81.123047 369.097222 C 78.398438 368.055556 81.386719 367.795139 78.75 365.538194 C 75.234375 362.413194 73.300781 357.899306 74.267578 353.472222 C 74.443359 352.864583 73.388672 350.607639 74.53125 350.78125 Z M 74.53125 350.78125 " transform="matrix(0.0444444,0,0,0.045,0,0)"/>
<path style="fill-rule:nonzero;fill:rgb(96.862745%,89.411765%,69.019608%);fill-opacity:1;stroke-width:1;stroke-linecap:round;stroke-linejoin:round;stroke:rgb(0%,0%,0%);stroke-opacity:1;stroke-miterlimit:4;" d="M 89.472656 354.6875 C 86.572266 346.961806 79.365234 338.975694 82.001953 330.902778 C 83.583984 326.302083 79.101562 324.045139 78.837891 319.270833 C 78.222656 306.597222 79.716797 293.923611 79.101562 281.163194 C 78.837891 276.128472 79.628906 271.180556 81.914062 266.493056 C 84.550781 261.197917 89.296875 257.03125 90.966797 251.388889 C 92.724609 245.659722 95.009766 240.017361 95.537109 234.027778 C 96.152344 226.128472 92.724609 217.361111 96.855469 210.069444 C 100.283203 203.993056 108.105469 201.215278 109.863281 194.097222 C 111.181641 188.541667 117.158203 186.458333 120.146484 182.204861 C 125.068359 175.260417 124.541016 162.239583 132.978516 160.329861 C 139.21875 158.940972 137.021484 152.34375 140.361328 148.263889 C 147.041016 140.277778 153.193359 131.423611 161.71875 125.434028 C 163.740234 124.045139 172.441406 120.746528 169.365234 120.746528 C 167.783203 120.659722 164.003906 121.788194 167.783203 120.3125 C 172.792969 118.402778 178.681641 119.010417 183.251953 116.319444 C 187.119141 113.975694 189.931641 111.545139 194.677734 109.982639 C 199.511719 108.420139 203.291016 107.986111 208.212891 105.46875 C 217.089844 101.041667 228.164062 101.128472 236.074219 94.965278 C 240.380859 91.666667 243.632812 83.506944 248.90625 84.895833 C 254.355469 86.371528 257.167969 79.861111 261.914062 79.079861 C 275.185547 76.822917 288.720703 79.253472 302.080078 76.996528 C 314.472656 74.913194 326.953125 71.701389 339.609375 72.829861 C 347.34375 73.524306 354.990234 72.048611 362.724609 73.871528 C 380.390625 78.125 395.419922 89.149306 412.207031 95.659722 C 418.007812 97.916667 425.478516 98.350694 429.169922 103.559028 C 433.476562 109.461806 441.210938 110.590278 446.572266 115.277778 C 454.570312 122.395833 462.216797 130.034722 471.708984 135.329861 C 478.828125 139.236111 490.341797 140.711806 491.923828 148.697917 C 492.802734 152.864583 495.351562 155.815972 498.955078 158.767361 C 503.964844 162.934028 507.304688 169.184028 507.832031 175.434028 C 508.271484 181.25 513.808594 181.597222 515.742188 187.239583 C 518.203125 194.444444 522.773438 200.78125 526.904297 207.118056 C 529.892578 211.71875 534.902344 214.930556 535.957031 221.006944 C 536.923828 226.822917 539.560547 232.378472 539.472656 238.628472 C 539.384766 248.003472 539.121094 257.291667 539.033203 266.666667 C 539.033203 280.815972 539.384766 294.878472 538.945312 308.940972 C 538.769531 315.625 534.990234 323.784722 539.296875 328.993056 C 542.197266 332.638889 542.109375 337.239583 542.109375 341.666667 C 542.197266 351.909722 544.306641 362.586806 541.582031 372.569444 C 538.945312 382.03125 537.802734 392.534722 532.001953 400.434028 C 531.035156 401.736111 528.662109 407.552083 527.871094 405.989583 C 526.728516 403.732639 521.71875 410.329861 521.103516 412.673611 C 519.785156 417.013889 515.302734 419.357639 514.160156 423.871528 C 512.841797 428.645833 509.238281 432.03125 506.074219 436.111111 C 504.140625 438.628472 500.537109 439.0625 499.921875 440.451389 C 497.548828 446.09375 493.945312 452.951389 487.96875 453.732639 C 483.222656 454.340278 483.046875 457.552083 478.300781 461.371528 C 475.224609 463.802083 473.291016 469.270833 468.896484 469.878472 C 463.535156 470.572917 462.392578 476.909722 458.085938 479.079861 C 453.691406 481.336806 449.208984 482.725694 444.199219 484.375 C 438.837891 486.197917 435.761719 493.315972 429.873047 492.534722 C 425.126953 492.013889 425.390625 497.395833 419.765625 497.569444 C 413.964844 497.743056 409.921875 502.604167 405.087891 505.034722 C 397.705078 508.59375 387.421875 507.638889 382.236328 514.0625 C 379.072266 517.96875 366.679688 523.4375 369.492188 519.618056 C 370.898438 517.795139 363.515625 519.270833 361.318359 519.704861 C 356.484375 520.833333 351.474609 519.878472 346.552734 521.440972 C 343.300781 522.482639 341.103516 524.479167 336.884766 524.565972 C 320.273438 524.913194 303.75 524.131944 287.050781 524.565972 C 276.240234 524.913194 264.814453 524.305556 254.970703 519.791667 C 251.367188 518.142361 247.851562 516.666667 243.896484 515.798611 C 233.701172 513.628472 223.59375 505.642361 213.486328 508.506944 C 209.179688 509.722222 205.664062 506.423611 201.796875 505.121528 C 197.753906 503.819444 195.46875 500 192.216797 498.4375 C 188.085938 496.527778 184.658203 494.704861 180 492.361111 C 170.859375 487.586806 163.652344 479.947917 156.972656 472.222222 C 150.029297 464.322917 138.779297 458.159722 136.757812 447.743056 C 135.791016 442.447917 131.308594 439.670139 128.232422 435.677083 C 124.804688 431.25 125.859375 423.958333 121.464844 420.659722 C 117.509766 417.708333 114.433594 413.975694 112.939453 409.114583 C 111.621094 404.6875 107.666016 400.607639 108.193359 395.833333 C 108.808594 389.84375 104.414062 386.197917 101.074219 380.555556 C 98.4375 376.128472 96.943359 372.829861 94.921875 366.840278 C 93.955078 364.149306 88.417969 361.631944 90.791016 358.246528 C 91.494141 357.204861 88.769531 355.034722 89.472656 354.6875 Z M 89.472656 354.6875 " transform="matrix(0.0444444,0,0,0.045,0,0)"/>
<path style="fill-rule:nonzero;fill:rgb(92.941176%,57.647059%,1.960784%);fill-opacity:1;stroke-width:1;stroke-linecap:butt;stroke-linejoin:miter;stroke:rgb(0%,0%,0%);stroke-opacity:1;stroke-miterlimit:4;" d="M 182.109375 448.958333 C 184.921875 445.399306 187.646484 439.583333 192.041016 440.017361 C 193.359375 440.104167 193.535156 438.368056 194.853516 437.673611 C 196.875 436.458333 198.984375 435.503472 200.917969 434.201389 C 201.445312 433.854167 203.378906 432.291667 201.708984 433.159722 C 199.951172 434.114583 202.587891 432.378472 202.939453 432.118056 C 206.015625 429.861111 209.53125 428.211806 212.255859 425.694444 C 216.035156 422.309028 224.560547 417.621528 221.308594 413.888889 C 219.902344 412.152778 222.890625 413.107639 223.505859 412.413194 C 225.087891 410.677083 227.285156 409.114583 227.988281 406.857639 C 228.339844 405.729167 227.8125 405.208333 228.779297 404.079861 C 230.625 402.083333 234.404297 401.5625 234.84375 398.784722 C 235.283203 396.440972 237.128906 394.878472 238.623047 393.315972 C 239.677734 392.100694 240.117188 390.538194 241.171875 389.236111 C 242.753906 387.152778 243.984375 384.635417 246.09375 383.072917 C 247.763672 381.857639 248.466797 380.034722 249.697266 378.472222 C 251.103516 376.649306 253.564453 375.868056 254.794922 373.871528 C 255.9375 372.048611 257.255859 370.3125 259.189453 369.097222 C 260.595703 368.142361 263.935547 367.534722 263.320312 365.885417 C 262.705078 364.322917 264.726562 363.541667 265.605469 362.586806 C 269.384766 358.59375 271.142578 353.125 274.746094 349.045139 C 277.207031 346.267361 280.195312 343.836806 281.601562 340.190972 C 282.919922 336.458333 285.292969 332.986111 288.896484 331.076389 C 291.181641 329.861111 293.466797 326.909722 295.839844 327.777778 C 297.685547 328.385417 298.037109 326.388889 299.882812 326.302083 C 301.904297 326.215278 304.453125 325.086806 305.859375 326.475694 C 307.705078 328.559028 309.023438 330.989583 310.605469 333.246528 C 311.660156 334.635417 311.396484 336.458333 311.396484 338.107639 C 311.484375 344.097222 313.066406 350.347222 311.220703 356.076389 C 310.605469 357.899306 309.462891 359.548611 309.462891 361.71875 C 309.462891 363.541667 308.935547 365.364583 308.320312 367.1875 C 307.441406 369.357639 307.265625 371.701389 307.001953 373.958333 C 306.650391 376.736111 305.683594 379.427083 305.771484 382.204861 C 305.771484 383.940972 305.859375 385.590278 305.683594 387.326389 C 305.15625 392.534722 306.210938 398.003472 304.365234 402.864583 C 303.574219 404.947917 302.431641 406.944444 302.255859 409.288194 C 301.728516 415.711806 303.222656 422.135417 302.34375 428.645833 C 301.640625 433.420139 297.685547 441.493056 302.34375 443.055556 C 303.486328 443.489583 303.574219 445.225694 303.837891 446.354167 C 304.716797 450.173611 303.662109 453.993056 304.804688 457.725694 C 306.298828 462.326389 308.408203 466.753472 308.671875 471.614583 C 309.199219 481.857639 303.925781 491.666667 296.015625 498.4375 C 294.169922 500 292.5 501.909722 290.214844 503.038194 C 283.271484 506.423611 275.361328 506.510417 267.802734 505.989583 C 265.253906 505.815972 262.792969 505.815972 260.244141 505.815972 C 256.992188 505.729167 253.740234 504.6875 250.839844 503.211806 C 249.345703 502.517361 248.115234 501.475694 246.445312 500.954861 C 240.205078 499.305556 231.591797 500.260417 227.988281 494.878472 C 227.021484 493.315972 225.087891 493.055556 223.417969 492.795139 C 220.78125 492.274306 219.375 488.975694 216.738281 488.888889 C 214.892578 488.802083 213.310547 487.760417 211.816406 486.892361 C 208.300781 484.982639 204.960938 482.8125 201.708984 480.46875 C 200.039062 479.253472 199.775391 477.256944 198.28125 475.868056 C 196.787109 474.565972 194.238281 474.652778 193.183594 472.65625 C 192.480469 471.180556 189.580078 470.746528 190.019531 469.184028 C 190.546875 467.361111 188.525391 466.145833 187.382812 465.017361 C 185.537109 463.28125 183.427734 461.545139 182.548828 459.114583 C 182.021484 457.552083 180.351562 456.684028 180 455.121528 C 179.560547 453.125 178.769531 450.868056 179.472656 448.871528 C 179.912109 447.65625 181.318359 448.784722 182.109375 448.958333 Z M 182.109375 448.958333 " transform="matrix(0.0444444,0,0,0.045,0,0)"/>
<path style="fill-rule:nonzero;fill:rgb(92.941176%,57.647059%,1.960784%);fill-opacity:1;stroke-width:1;stroke-linecap:butt;stroke-linejoin:miter;stroke:rgb(0%,0%,0%);stroke-opacity:1;stroke-miterlimit:4;" d="M 119.267578 342.795139 C 121.113281 340.798611 125.683594 341.319444 126.298828 338.715278 C 126.826172 336.197917 129.990234 338.020833 131.220703 336.805556 C 132.802734 335.15625 135.087891 336.197917 136.933594 335.069444 C 138.691406 333.940972 140.625 333.159722 142.646484 332.465278 C 147.128906 330.815972 151.699219 328.472222 156.621094 328.645833 C 159.521484 328.732639 162.509766 328.819444 165.410156 328.385417 C 167.431641 328.038194 169.453125 326.736111 171.474609 327.517361 C 173.144531 328.211806 174.023438 325.78125 175.429688 326.128472 C 177.275391 326.5625 178.945312 325.434028 180.791016 325.260417 C 183.339844 325 185.888672 324.913194 188.349609 324.565972 C 196.259766 323.611111 204.169922 322.482639 211.992188 320.920139 C 216.123047 320.138889 220.078125 318.402778 224.296875 318.142361 C 228.691406 317.795139 233.085938 317.881944 237.216797 316.145833 C 240.205078 314.930556 243.28125 313.888889 246.533203 313.28125 C 249.521484 312.760417 253.740234 313.454861 255.146484 310.763889 C 256.113281 308.767361 258.574219 309.375 260.244141 309.722222 C 262.265625 310.15625 262.792969 308.159722 264.638672 307.725694 C 269.648438 306.597222 274.746094 307.986111 279.84375 307.552083 C 281.953125 307.378472 284.0625 307.552083 286.259766 308.159722 C 287.929688 308.59375 284.941406 308.159722 286.435547 308.767361 C 287.753906 309.288194 288.457031 309.809028 289.6875 311.024306 C 290.830078 312.152778 292.763672 312.413194 293.466797 314.409722 C 293.818359 315.277778 294.960938 314.930556 295.048828 316.579861 C 295.048828 318.229167 295.751953 320.225694 294.873047 321.701389 C 293.115234 324.652778 290.126953 326.475694 287.314453 328.211806 C 285.908203 329.166667 283.798828 329.166667 283.095703 330.989583 C 282.392578 332.552083 280.195312 332.204861 279.140625 333.680556 C 277.910156 335.503472 278.4375 339.409722 276.240234 339.583333 C 274.042969 339.756944 274.921875 341.840278 274.042969 343.315972 C 273.251953 344.791667 272.285156 346.180556 272.285156 348.003472 C 272.285156 349.565972 270.703125 350.260417 270 351.475694 C 267.099609 356.684028 263.144531 361.197917 260.595703 366.493056 C 259.541016 368.663194 259.541016 371.875 257.431641 373.003472 C 255.322266 374.131944 255.234375 376.5625 254.267578 378.559028 C 253.476562 380.295139 252.070312 381.684028 250.839844 383.159722 C 248.642578 385.763889 246.972656 388.802083 244.511719 391.145833 C 242.666016 392.881944 240.292969 393.923611 238.886719 396.09375 C 237.919922 397.65625 236.601562 398.611111 235.107422 399.652778 C 233.613281 400.78125 231.240234 401.736111 231.064453 403.732639 C 230.888672 405.381944 229.130859 406.423611 227.900391 407.291667 C 226.142578 408.506944 224.648438 410.069444 223.417969 411.805556 C 222.363281 413.28125 221.044922 414.583333 219.462891 415.711806 C 217.089844 417.447917 217.177734 421.267361 214.365234 422.482639 C 211.201172 423.871528 209.443359 427.256944 206.367188 428.645833 C 204.785156 429.340278 202.587891 429.600694 202.060547 431.423611 C 201.445312 433.420139 199.599609 432.465278 198.193359 433.59375 C 193.974609 436.979167 187.998047 437.934028 184.130859 441.753472 C 182.988281 442.881944 181.318359 443.315972 179.736328 443.402778 C 177.275391 443.663194 174.902344 444.184028 172.529297 444.965278 C 170.244141 445.659722 167.783203 445.399306 165.322266 445.052083 C 163.652344 444.878472 162.773438 443.663194 161.630859 442.621528 C 159.697266 440.885417 156.357422 441.319444 155.126953 438.802083 C 153.896484 436.284722 150.46875 435.763889 149.414062 433.420139 C 148.710938 431.944444 147.744141 430.642361 146.513672 429.513889 C 143.876953 427.256944 140.273438 425.260417 139.482422 421.701389 C 139.130859 419.965278 137.285156 419.965278 136.142578 418.836806 C 135.175781 417.96875 134.296875 417.1875 133.945312 415.625 C 133.681641 414.149306 133.505859 412.586806 132.1875 411.371528 C 130.693359 410.069444 131.660156 408.072917 130.517578 406.684028 C 128.144531 403.819444 125.419922 401.215278 123.222656 398.263889 C 122.783203 397.65625 122.34375 399.131944 121.640625 398.177083 C 120.146484 396.006944 119.091797 393.489583 118.388672 390.885417 C 117.685547 388.194444 117.246094 384.809028 114.960938 383.072917 C 113.90625 382.291667 114.609375 380.381944 114.609375 379.079861 C 114.521484 371.354167 114.082031 363.454861 115.839844 355.815972 C 116.367188 353.472222 116.367188 350.954861 117.421875 348.784722 C 118.300781 346.875 119.267578 344.878472 119.267578 342.795139 Z M 119.267578 342.795139 " transform="matrix(0.0444444,0,0,0.045,0,0)"/>
<path style="fill-rule:nonzero;fill:rgb(92.941176%,57.647059%,1.960784%);fill-opacity:1;stroke-width:1;stroke-linecap:butt;stroke-linejoin:miter;stroke:rgb(0%,0%,0%);stroke-opacity:1;stroke-miterlimit:4;" d="M 126.914062 239.756944 C 125.068359 238.194444 123.222656 236.458333 122.080078 234.288194 C 119.003906 228.559028 116.455078 222.395833 115.576172 215.972222 C 115.136719 212.934028 114.609375 209.461806 116.191406 206.597222 C 117.773438 203.993056 120.849609 202.951389 122.34375 200.260417 C 123.75 197.65625 126.210938 196.006944 128.408203 194.097222 C 130.517578 192.1875 134.121094 191.927083 135.527344 189.409722 C 136.318359 188.020833 137.548828 187.065972 138.515625 185.850694 C 139.658203 184.375 141.943359 183.159722 141.679688 181.336806 C 141.416016 179.427083 143.964844 179.861111 143.964844 178.211806 C 143.964844 176.388889 145.898438 175.954861 146.865234 174.739583 C 148.623047 172.482639 148.798828 169.184028 151.347656 167.447917 C 153.105469 166.145833 156.445312 165.798611 156.621094 163.628472 C 156.796875 162.413194 157.060547 161.631944 158.378906 160.9375 C 161.103516 159.461806 161.982422 155.815972 164.794922 154.600694 C 166.816406 153.732639 169.013672 153.559028 171.035156 152.517361 C 172.880859 151.5625 174.638672 150.347222 176.748047 150.173611 C 183.427734 149.739583 190.195312 148.958333 196.875 149.739583 C 198.369141 149.913194 200.302734 149.826389 201.09375 151.388889 C 201.884766 152.777778 203.291016 152.517361 204.169922 154.079861 C 204.960938 155.555556 206.455078 157.204861 206.015625 158.854167 C 205.576172 160.503472 207.773438 160.503472 208.212891 161.892361 C 208.652344 163.194444 207.861328 165.451389 209.179688 165.972222 C 210.585938 166.493056 211.201172 167.795139 211.552734 169.097222 C 212.255859 171.788194 214.980469 172.916667 216.298828 175.260417 C 217.353516 176.996528 219.638672 178.298611 219.550781 180.295139 C 219.462891 182.378472 221.660156 182.552083 222.802734 183.854167 C 224.296875 185.590278 225.263672 187.934028 227.373047 189.149306 C 228.867188 190.017361 229.833984 191.493056 230.712891 192.881944 C 231.943359 194.965278 233.964844 196.440972 235.634766 198.090278 C 237.392578 199.826389 240.292969 201.302083 240.46875 203.819444 C 240.556641 205.642361 243.193359 204.947917 243.544922 206.25 C 243.896484 207.899306 245.566406 208.680556 246.884766 209.461806 C 248.378906 210.329861 248.291016 211.979167 249.521484 213.28125 C 250.576172 214.409722 252.246094 214.496528 253.388672 215.625 C 255.849609 218.142361 257.519531 221.09375 260.244141 223.350694 C 263.320312 226.041667 267.099609 228.385417 269.033203 232.118056 C 269.912109 233.767361 271.669922 234.461806 273.164062 235.416667 C 274.746094 236.545139 275.976562 238.020833 277.382812 239.322917 C 277.734375 239.670139 279.492188 241.927083 278.173828 240.451389 C 277.734375 239.930556 276.064453 238.975694 277.03125 240.451389 C 277.998047 241.840278 279.228516 242.96875 280.634766 243.923611 C 282.480469 245.052083 283.447266 246.961806 284.501953 248.784722 C 286.083984 251.302083 288.28125 253.732639 288.632812 256.770833 C 288.808594 258.159722 289.248047 259.461806 290.039062 260.763889 C 291.181641 262.413194 291.445312 264.409722 291.796875 266.319444 C 292.5 269.878472 293.642578 273.524306 292.851562 277.083333 C 292.412109 278.90625 291.005859 280.295139 289.599609 281.25 C 287.929688 282.465278 285.644531 282.03125 283.710938 282.465278 C 279.404297 283.420139 275.009766 282.378472 271.054688 280.555556 C 267.275391 278.819444 263.847656 276.302083 259.804688 275.173611 C 255.761719 274.045139 252.509766 271.440972 248.90625 269.53125 C 246.445312 268.315972 243.720703 268.055556 241.171875 267.447917 C 228.603516 264.322917 215.595703 266.319444 202.851562 263.888889 C 200.214844 263.454861 197.226562 263.454861 195.029297 261.805556 C 193.271484 260.503472 191.25 259.722222 189.052734 259.895833 C 187.294922 259.982639 185.800781 258.940972 184.306641 258.072917 C 180.791016 256.163194 176.660156 255.902778 172.792969 255.555556 C 169.453125 255.208333 166.201172 254.253472 163.037109 253.298611 C 160.400391 252.430556 157.763672 251.5625 155.302734 250.173611 C 153.632812 249.305556 151.787109 248.524306 149.853516 248.350694 C 147.216797 248.003472 145.810547 244.791667 143.261719 244.878472 C 142.470703 244.878472 142.470703 243.836806 141.416016 244.184028 C 139.746094 244.618056 138.339844 243.229167 137.021484 242.447917 C 134.648438 240.972222 132.099609 238.975694 129.199219 239.149306 C 128.408203 239.149306 127.617188 239.583333 126.914062 239.756944 Z M 126.914062 239.756944 " transform="matrix(0.0444444,0,0,0.045,0,0)"/>
<path style="fill-rule:nonzero;fill:rgb(92.941176%,57.647059%,1.960784%);fill-opacity:1;stroke-width:1;stroke-linecap:butt;stroke-linejoin:miter;stroke:rgb(0%,0%,0%);stroke-opacity:1;stroke-miterlimit:4;" d="M 344.794922 292.100694 C 346.992188 291.493056 347.695312 287.847222 349.892578 288.020833 C 351.826172 288.194444 352.089844 286.111111 353.408203 285.15625 C 354.990234 283.940972 357.539062 283.420139 358.242188 281.336806 C 358.681641 279.861111 361.230469 280.295139 361.40625 278.993056 C 361.494141 277.864583 363.691406 278.211806 364.042969 277.083333 C 364.306641 276.128472 365.800781 275.868056 366.679688 275.520833 C 368.349609 275 369.667969 273.784722 371.074219 272.569444 C 372.128906 271.701389 373.623047 271.701389 374.853516 271.180556 C 377.050781 270.399306 378.544922 268.576389 380.654297 267.534722 C 385.576172 265.190972 390.585938 263.020833 395.419922 260.416667 C 399.902344 257.986111 404.121094 254.600694 409.21875 253.732639 C 410.800781 253.385417 412.734375 253.819444 414.052734 252.34375 C 415.283203 251.041667 417.304688 252.777778 418.623047 251.909722 C 420.117188 250.868056 421.787109 250.086806 423.632812 249.652778 C 426.269531 249.045139 428.994141 249.305556 431.542969 248.4375 C 433.740234 247.65625 435.673828 245.659722 438.222656 246.180556 C 440.15625 246.527778 441.826172 245.3125 443.583984 244.965278 C 447.451172 244.097222 451.40625 243.923611 455.185547 242.621528 C 457.910156 241.753472 460.634766 240.104167 463.535156 240.364583 C 465.029297 240.538194 466.787109 240.972222 467.929688 239.930556 C 469.160156 238.802083 471.972656 240.277778 472.060547 238.888889 C 472.060547 237.326389 474.082031 237.673611 475.136719 237.586806 C 476.279297 237.5 477.158203 237.413194 478.300781 236.284722 C 479.179688 235.329861 480.673828 235.243056 481.816406 234.982639 C 486.298828 233.940972 490.429688 232.03125 494.736328 230.381944 C 496.054688 229.947917 497.460938 230.642361 498.691406 230.295139 C 500.273438 229.861111 501.416016 228.298611 503.173828 228.211806 C 505.458984 228.125 508.095703 227.517361 510.029297 228.732639 C 511.171875 229.427083 511.611328 230.815972 512.138672 232.03125 C 513.193359 234.635417 516.181641 237.413194 515.126953 240.017361 C 514.335938 241.927083 516.357422 242.795139 516.621094 244.444444 C 517.060547 246.875 517.148438 249.305556 518.115234 251.649306 C 519.082031 253.732639 520.927734 255.46875 521.103516 257.8125 C 521.455078 262.673611 521.542969 267.534722 521.367188 272.395833 C 521.279297 274.045139 521.894531 275.954861 521.015625 277.430556 C 520.400391 278.472222 518.90625 278.819444 518.730469 280.208333 C 518.466797 282.552083 519.873047 284.895833 518.730469 287.152778 C 517.851562 288.802083 517.412109 290.625 517.5 292.534722 C 517.587891 294.791667 518.90625 298.090278 516.796875 299.479167 C 514.951172 300.607639 514.423828 302.864583 513.720703 304.774306 C 512.929688 307.118056 511.083984 309.027778 508.886719 309.982639 C 507.568359 310.590278 506.074219 311.458333 504.580078 311.197917 C 503.085938 310.850694 502.382812 312.760417 501.064453 313.107639 C 499.570312 313.541667 497.988281 312.760417 496.494141 313.454861 C 495.087891 314.149306 493.505859 314.496528 491.923828 314.583333 C 486.123047 314.930556 480.322266 314.496528 474.521484 314.583333 C 472.060547 314.583333 470.126953 312.847222 467.841797 312.5 C 465.996094 312.152778 464.150391 312.673611 462.304688 312.152778 C 460.546875 311.631944 458.613281 311.458333 456.679688 311.284722 C 454.394531 311.024306 452.021484 311.371528 449.736328 311.024306 C 444.550781 310.15625 439.628906 307.8125 434.355469 307.986111 C 432.246094 308.072917 430.136719 307.986111 428.027344 307.899306 C 421.787109 307.465278 415.371094 307.899306 409.482422 305.989583 C 407.988281 305.46875 406.494141 304.947917 405 304.6875 C 400.517578 303.90625 396.210938 302.951389 391.728516 302.430556 C 388.388672 302.083333 385.048828 301.302083 381.708984 300.78125 C 376.787109 300.173611 371.865234 301.215278 366.943359 301.041667 C 365.537109 300.954861 367.382812 300.954861 366.943359 300.78125 C 364.394531 299.739583 361.669922 300.78125 359.121094 300.434028 C 356.660156 300.086806 354.462891 298.958333 351.914062 299.045139 C 350.859375 299.131944 348.486328 300 348.662109 298.958333 C 348.925781 297.743056 346.992188 297.309028 346.025391 296.701389 C 344.355469 295.659722 342.246094 294.618056 341.71875 292.534722 C 341.367188 290.885417 342.861328 290.017361 344.267578 290.017361 C 345.322266 289.930556 344.619141 291.493056 344.794922 292.100694 Z M 344.794922 292.100694 " transform="matrix(0.0444444,0,0,0.045,0,0)"/>
<path style="fill-rule:nonzero;fill:rgb(92.941176%,57.647059%,1.960784%);fill-opacity:1;stroke-width:1;stroke-linecap:butt;stroke-linejoin:miter;stroke:rgb(0%,0%,0%);stroke-opacity:1;stroke-miterlimit:4;" d="M 314.824219 349.826389 C 315.878906 343.75 317.460938 337.760417 320.537109 332.378472 C 322.119141 329.513889 324.140625 326.388889 327.392578 325.434028 C 330.292969 324.652778 333.105469 326.475694 334.951172 328.559028 C 336.09375 329.947917 337.060547 332.118056 339.082031 332.291667 C 341.015625 332.465278 340.751953 334.548611 341.806641 335.503472 C 344.003906 337.413194 346.640625 338.802083 348.046875 341.493056 C 349.013672 343.315972 350.332031 345.052083 351.738281 346.614583 C 354.902344 349.826389 358.154297 352.864583 360.791016 356.597222 C 362.636719 359.201389 366.152344 361.458333 366.152344 364.756944 C 366.240234 366.666667 367.558594 367.96875 368.701172 369.357639 C 370.898438 371.961806 372.392578 375.173611 374.326172 377.951389 C 378.808594 384.288194 383.90625 390.277778 388.037109 396.875 C 390.498047 400.954861 392.080078 405.555556 394.628906 409.635417 C 396.474609 412.586806 398.847656 415.190972 399.990234 418.489583 C 401.748047 423.611111 402.099609 429.166667 404.736328 433.854167 C 406.318359 436.805556 407.636719 439.84375 408.691406 442.96875 C 409.658203 445.746528 409.921875 448.784722 411.591797 451.128472 C 412.470703 452.256944 413.349609 453.385417 413.349609 454.861111 C 413.349609 456.163194 412.910156 457.378472 413.173828 458.59375 C 413.525391 460.416667 414.667969 461.892361 414.755859 463.802083 C 414.84375 466.493056 414.580078 469.097222 414.755859 471.788194 C 414.931641 473.524306 414.755859 475.260417 413.789062 476.822917 C 412.734375 478.385417 411.064453 479.513889 410.625 481.510417 C 410.273438 483.246528 408.691406 484.461806 407.285156 485.416667 C 403.066406 488.541667 397.617188 488.975694 392.783203 490.625 C 388.828125 491.840278 384.960938 493.576389 380.830078 494.184028 C 372.128906 495.572917 363.251953 496.180556 354.462891 496.527778 C 347.519531 496.701389 340.488281 494.878472 333.632812 496.267361 C 328.007812 497.395833 321.679688 498.4375 316.494141 495.833333 C 315.175781 495.138889 313.417969 495.138889 312.978516 493.315972 C 311.835938 488.107639 312.714844 482.638889 311.132812 477.430556 C 310.341797 474.826389 309.726562 472.135417 310.078125 469.357639 C 310.517578 466.40625 309.990234 463.454861 309.638672 460.503472 C 309.375 457.291667 308.496094 454.253472 307.001953 451.388889 C 305.771484 449.21875 304.365234 446.875 304.716797 444.184028 C 304.980469 442.534722 304.804688 440.885417 304.541016 439.236111 C 303.398438 433.767361 301.816406 428.125 303.222656 422.569444 C 304.189453 418.576389 306.826172 415.277778 307.617188 411.284722 C 308.144531 408.59375 307.265625 405.815972 307.705078 403.038194 C 308.671875 397.135417 310.517578 391.319444 310.341797 385.243056 C 310.166016 379.947917 308.583984 374.479167 310.341797 369.444444 C 311.308594 366.753472 313.154297 364.496528 313.59375 361.545139 C 313.769531 359.982639 313.769531 358.159722 314.824219 356.770833 C 315.966797 355.381944 315.527344 353.472222 315.263672 351.909722 C 315.087891 351.215278 315 350.520833 314.824219 349.826389 Z M 314.824219 349.826389 " transform="matrix(0.0444444,0,0,0.045,0,0)"/>
<path style="fill-rule:nonzero;fill:rgb(92.941176%,57.647059%,1.960784%);fill-opacity:1;stroke-width:1;stroke-linecap:butt;stroke-linejoin:miter;stroke:rgb(0%,0%,0%);stroke-opacity:1;stroke-miterlimit:4;" d="M 350.419922 303.559028 C 369.931641 303.559028 389.53125 303.993056 409.042969 303.559028 C 414.492188 303.385417 419.941406 303.038194 425.390625 303.90625 C 428.291016 304.340278 431.630859 304.079861 433.916016 305.902778 C 435.234375 306.944444 437.080078 306.944444 438.662109 306.770833 C 440.947266 306.597222 443.232422 306.510417 445.517578 307.118056 C 447.714844 307.638889 449.648438 309.114583 451.933594 309.375 C 453.779297 309.635417 455.800781 308.680556 457.470703 309.895833 C 459.228516 311.197917 461.601562 310.763889 463.623047 310.503472 C 466.083984 310.243056 468.632812 310.15625 471.09375 310.850694 C 476.015625 312.152778 481.201172 311.458333 486.210938 312.065972 C 489.726562 312.5 493.242188 314.149306 496.757812 313.802083 C 499.570312 313.541667 502.207031 314.409722 504.931641 315.017361 C 507.216797 315.538194 509.677734 317.274306 511.875 316.319444 C 513.632812 315.538194 514.248047 317.447917 515.654297 318.055556 C 517.851562 318.923611 520.224609 319.53125 522.070312 321.09375 C 524.267578 323.003472 527.255859 324.565972 527.871094 327.430556 C 528.134766 328.645833 528.486328 329.253472 529.277344 330.815972 C 530.419922 333.072917 530.683594 335.677083 530.859375 338.107639 C 531.035156 341.232639 531.386719 344.444444 530.683594 347.569444 C 530.419922 348.784722 528.046875 351.5625 529.365234 351.388889 C 530.332031 351.215278 528.662109 353.559028 528.134766 354.079861 C 526.904297 355.121528 526.201172 356.597222 526.025391 358.159722 C 525.849609 359.982639 525.498047 361.805556 524.355469 363.368056 C 522.861328 365.711806 521.015625 367.96875 520.224609 370.746528 C 519.521484 373.4375 518.378906 375.954861 516.708984 378.211806 C 514.160156 381.597222 511.171875 384.635417 509.765625 388.715278 C 508.535156 392.013889 506.425781 394.878472 504.404297 397.829861 C 501.767578 401.736111 499.306641 405.902778 495.791016 409.114583 C 492.451172 412.152778 489.023438 415.798611 484.541016 416.493056 C 483.574219 416.666667 483.398438 417.361111 482.519531 417.881944 C 481.552734 418.489583 481.025391 419.270833 479.970703 419.791667 C 478.388672 420.486111 476.806641 419.53125 475.048828 419.618056 C 472.763672 419.791667 470.126953 420.225694 468.193359 418.576389 C 466.435547 417.013889 465.029297 415.017361 462.919922 413.715278 C 460.458984 412.065972 457.910156 410.503472 455.888672 408.333333 C 453.427734 405.815972 451.40625 402.604167 448.066406 401.302083 C 446.220703 400.607639 444.375 400 442.705078 398.958333 C 438.310547 396.09375 434.53125 392.361111 429.873047 389.756944 C 428.291016 388.888889 426.708984 387.847222 425.654297 386.284722 C 423.808594 383.680556 421.171875 381.770833 418.623047 379.861111 C 414.052734 376.475694 409.394531 373.090278 405.351562 369.010417 C 400.517578 364.322917 395.683594 359.461806 390.146484 355.555556 C 381.708984 349.565972 372.568359 344.618056 364.746094 337.934028 C 360.966797 334.635417 357.275391 331.25 353.671875 327.864583 C 350.947266 325.347222 347.519531 323.090278 346.113281 319.618056 C 345.234375 317.621528 344.882812 315.451389 344.794922 313.28125 C 344.707031 311.631944 345.146484 310.069444 346.816406 308.854167 C 348.134766 307.899306 348.398438 306.163194 349.277344 304.861111 C 349.628906 304.340278 349.980469 303.90625 350.419922 303.559028 Z M 350.419922 303.559028 " transform="matrix(0.0444444,0,0,0.045,0,0)"/>
<path style="fill-rule:nonzero;fill:rgb(92.941176%,57.647059%,1.960784%);fill-opacity:1;stroke-width:0.973659;stroke-linecap:butt;stroke-linejoin:miter;stroke:rgb(0%,0%,0%);stroke-opacity:1;stroke-miterlimit:4;" d="M 319.921875 265.017361 C 318.603516 260.850694 320.185547 256.684028 321.240234 252.777778 C 321.591797 251.215278 321.064453 249.652778 321.328125 248.090278 C 321.855469 245.225694 320.097656 242.708333 318.515625 240.538194 C 317.197266 238.802083 316.494141 236.631944 316.40625 234.461806 C 316.318359 232.291667 315.351562 230.034722 316.142578 228.038194 C 316.933594 225.868056 315.527344 223.871528 314.384766 222.222222 C 312.978516 219.965278 313.154297 217.1875 313.154297 214.670139 C 313.066406 207.725694 313.417969 200.868056 313.681641 193.923611 C 313.857422 188.628472 315.351562 182.899306 313.505859 177.864583 C 312.978516 176.475694 312.539062 175.173611 312.011719 173.871528 C 311.396484 172.309028 311.748047 170.746528 311.748047 169.184028 C 311.835938 167.361111 311.396484 165.625 310.693359 163.888889 C 309.814453 161.892361 311.132812 159.635417 310.166016 157.638889 C 309.199219 155.642361 308.232422 153.645833 308.056641 151.475694 C 307.705078 148.263889 307.441406 145.052083 306.738281 141.840278 C 304.892578 133.072917 302.695312 124.21875 298.388672 116.319444 C 296.455078 112.934028 294.345703 109.375 291.005859 107.204861 C 289.511719 106.076389 287.050781 107.204861 285.820312 105.555556 C 284.941406 104.340278 283.271484 104.166667 281.865234 103.90625 C 277.207031 103.125 272.373047 104.253472 267.626953 103.298611 C 265.166016 102.777778 262.529297 102.517361 260.15625 103.298611 C 259.189453 103.645833 257.607422 103.732639 256.992188 104.427083 C 256.201172 105.121528 254.267578 105.121528 253.037109 105.208333 C 250.136719 105.46875 244.775391 108.854167 244.160156 105.989583 C 244.072266 105.555556 247.060547 105.208333 246.884766 105.295139 C 243.544922 106.25 240.117188 107.118056 236.689453 107.725694 C 232.382812 108.420139 227.460938 107.725694 223.945312 110.503472 C 222.363281 111.631944 220.78125 112.760417 218.935547 113.454861 C 216.035156 114.583333 213.134766 115.972222 211.376953 118.663194 C 209.619141 121.09375 209.091797 124.565972 206.542969 126.388889 C 205.400391 127.170139 204.169922 127.864583 203.642578 129.340278 C 202.236328 132.725694 202.148438 136.371528 201.269531 139.930556 C 200.742188 142.447917 199.423828 145.3125 200.478516 147.743056 C 201.445312 150 202.148438 153.125 204.433594 153.993056 C 206.015625 154.600694 205.927734 156.076389 206.894531 157.552083 C 207.949219 159.201389 208.740234 160.850694 208.916016 162.934028 C 209.267578 165.711806 209.53125 168.75 211.640625 170.920139 C 213.925781 173.350694 217.001953 174.826389 219.287109 177.34375 C 221.484375 179.6875 223.857422 181.944444 225.615234 184.635417 C 227.285156 187.326389 227.988281 190.798611 230.625 192.621528 C 234.404297 195.3125 237.568359 198.871528 241.347656 201.649306 C 244.599609 204.079861 247.851562 206.684028 251.103516 209.201389 C 253.828125 211.371528 257.255859 213.020833 259.365234 215.885417 C 263.935547 222.135417 267.451172 229.253472 272.8125 234.895833 C 275.976562 238.194444 280.019531 240.798611 282.041016 244.791667 C 282.65625 246.09375 283.095703 247.395833 283.886719 248.611111 C 285.996094 252.256944 288.896484 255.381944 291.09375 258.940972 C 293.466797 262.760417 296.542969 266.40625 300.9375 267.96875 C 303.925781 268.923611 307.177734 268.229167 310.166016 269.010417 C 312.275391 269.618056 312.714844 266.319444 314.648438 266.579861 C 316.318359 266.840278 317.285156 265.104167 318.691406 265.017361 C 319.042969 265.017361 319.482422 265.017361 319.921875 265.017361 Z M 319.921875 265.017361 " transform="matrix(0.0444444,0,0,0.045,0,0)"/>
<path style="fill-rule:nonzero;fill:rgb(92.941176%,57.647059%,1.960784%);fill-opacity:1;stroke-width:1;stroke-linecap:butt;stroke-linejoin:miter;stroke:rgb(0%,0%,0%);stroke-opacity:1;stroke-miterlimit:4;" d="M 338.730469 268.836806 C 338.730469 267.447917 338.994141 266.753472 339.960938 265.364583 C 340.751953 264.149306 342.861328 264.149306 342.861328 262.760417 C 342.949219 261.284722 342.421875 259.895833 343.740234 258.506944 C 345.058594 257.03125 345.673828 255.208333 346.728516 253.559028 C 348.662109 250.434028 353.847656 249.305556 354.111328 245.746528 C 354.199219 244.357639 355.341797 243.055556 356.132812 241.927083 C 357.539062 240.104167 360.351562 239.0625 360.263672 236.631944 C 360.263672 235.329861 361.054688 234.895833 362.021484 233.767361 C 363.076172 232.638889 362.900391 231.076389 363.515625 229.6875 C 364.306641 228.125 365.888672 227.170139 367.03125 225.78125 C 368.701172 223.958333 368.876953 221.267361 370.722656 219.53125 C 371.337891 218.923611 373.095703 216.840278 372.832031 217.447917 C 372.392578 218.315972 372.392578 218.836806 373.095703 217.795139 C 374.589844 215.798611 375.908203 213.715278 376.962891 211.371528 C 377.753906 209.809028 378.457031 208.072917 380.214844 207.204861 C 382.324219 206.076389 382.939453 203.559028 383.642578 201.475694 C 384.345703 199.565972 385.839844 198.090278 387.597656 197.048611 C 388.916016 196.267361 390.322266 195.486111 390.9375 194.010417 C 392.431641 190.451389 393.134766 186.631944 394.716797 183.159722 C 396.386719 179.513889 399.375 176.475694 400.253906 172.569444 C 400.517578 171.267361 401.220703 170.138889 402.099609 169.010417 C 404.648438 165.625 406.054688 161.111111 409.746094 158.767361 C 411.240234 157.8125 412.910156 157.204861 414.052734 155.642361 C 416.162109 152.604167 418.623047 149.739583 420.292969 146.440972 C 421.523438 144.010417 422.050781 141.232639 422.050781 138.454861 C 422.138672 134.461806 423.984375 129.861111 422.050781 126.302083 C 421.083984 124.652778 420.029297 123.090278 418.886719 121.527778 C 416.953125 119.010417 414.931641 116.145833 411.679688 115.277778 C 410.097656 114.84375 408.515625 115.364583 406.845703 115.017361 C 404.472656 114.583333 402.099609 116.232639 399.814453 115.104167 C 396.5625 113.541667 392.958984 112.673611 389.794922 110.850694 C 386.191406 108.680556 384.169922 103.993056 380.039062 103.038194 C 378.105469 102.604167 376.347656 104.427083 374.238281 103.298611 C 370.546875 101.302083 366.767578 99.305556 362.8125 98.003472 C 361.142578 97.395833 359.384766 97.048611 357.539062 97.135417 C 354.375 97.309028 349.980469 97.048611 348.574219 94.184028 C 348.134766 93.229167 351.386719 95.225694 349.453125 94.791667 C 346.640625 94.010417 343.828125 92.621528 340.927734 92.881944 C 337.675781 93.229167 334.423828 94.53125 331.347656 93.75 C 327.919922 92.96875 324.316406 92.795139 320.888672 93.75 C 316.582031 94.965278 312.890625 97.65625 309.990234 101.128472 C 307.265625 104.253472 305.507812 108.680556 301.728516 110.416667 C 300.498047 111.024306 299.794922 111.284722 301.113281 112.673611 C 302.167969 113.975694 301.992188 115.885417 301.992188 117.447917 C 301.904297 118.923611 302.255859 120.3125 303.222656 121.701389 C 304.365234 123.350694 302.167969 125.520833 303.486328 126.909722 C 304.804688 128.298611 305.15625 130.121528 304.716797 132.03125 C 304.365234 133.767361 305.771484 135.069444 306.123047 136.631944 C 306.650391 139.0625 306.035156 141.666667 307.001953 143.923611 C 307.705078 145.399306 309.902344 146.180556 309.375 148.263889 C 309.111328 149.652778 311.044922 148.871528 311.044922 150.520833 C 311.044922 152.34375 310.78125 154.079861 310.957031 155.902778 C 311.484375 160.243056 311.923828 164.583333 312.275391 168.923611 C 312.539062 172.222222 311.835938 175.347222 312.275391 178.645833 C 312.802734 182.03125 314.384766 185.503472 313.505859 188.802083 C 313.066406 190.625 314.121094 192.100694 314.912109 193.75 C 316.318359 196.788194 315.263672 200.347222 316.054688 203.559028 C 316.669922 205.989583 317.988281 208.246528 318.339844 210.850694 C 319.394531 220.833333 316.494141 230.902778 318.691406 240.798611 C 319.482422 244.444444 320.273438 248.090278 321.591797 251.475694 C 322.646484 254.079861 324.931641 255.815972 325.986328 258.420139 C 326.865234 260.677083 326.777344 264.756944 329.414062 265.017361 C 330.908203 265.190972 332.314453 265.104167 333.808594 265.538194 C 334.6875 265.885417 332.490234 265.017361 333.632812 266.059028 C 334.599609 266.840278 336.005859 265.798611 336.621094 266.40625 C 337.5 267.100694 338.115234 268.055556 338.730469 268.836806 Z M 338.730469 268.836806 " transform="matrix(0.0444444,0,0,0.045,0,0)"/>
<path style="fill-rule:nonzero;fill:rgb(92.941176%,57.647059%,1.960784%);fill-opacity:1;stroke-width:1;stroke-linecap:butt;stroke-linejoin:miter;stroke:rgb(0%,0%,0%);stroke-opacity:1;stroke-miterlimit:4;" d="M 436.640625 130.46875 C 446.748047 135.243056 454.921875 143.315972 462.304688 151.649306 C 468.105469 158.420139 474.873047 164.496528 479.53125 172.048611 C 480.849609 174.131944 481.376953 176.649306 482.695312 178.819444 C 485.15625 182.899306 487.705078 186.979167 489.814453 191.40625 C 492.099609 196.267361 493.066406 201.909722 496.318359 206.163194 C 497.285156 207.465278 498.779297 208.680556 498.691406 210.329861 C 498.515625 212.152778 499.921875 213.28125 500.625 214.84375 C 501.855469 217.447917 502.734375 220.225694 503.261719 223.090278 C 503.613281 225 502.03125 226.475694 500.361328 227.170139 C 496.40625 228.90625 491.396484 228.125 488.144531 230.989583 C 486.826172 232.204861 485.15625 231.684028 483.574219 232.118056 C 480.058594 233.072917 476.982422 235.069444 473.291016 235.590278 C 470.126953 236.024306 467.050781 236.892361 463.798828 237.065972 C 462.304688 237.152778 460.107422 236.458333 459.228516 237.847222 C 458.349609 239.322917 456.503906 239.756944 455.009766 240.364583 C 451.142578 241.666667 446.835938 242.013889 443.320312 244.184028 C 441.650391 245.225694 440.15625 247.482639 438.222656 247.222222 C 436.728516 246.961806 435.234375 247.222222 433.740234 247.743056 C 428.378906 249.652778 423.105469 251.822917 417.832031 254.079861 C 415.107422 255.208333 412.294922 256.163194 409.746094 257.725694 C 408.251953 258.680556 406.494141 258.940972 404.648438 258.940972 C 403.154297 258.940972 401.572266 259.114583 400.166016 259.895833 C 398.935547 260.503472 397.705078 261.111111 396.123047 261.197917 C 393.222656 261.284722 390.761719 263.194444 387.949219 263.888889 C 385.927734 264.409722 384.345703 265.625 382.851562 267.013889 C 381.621094 268.055556 380.302734 268.923611 378.632812 269.184028 C 377.578125 269.357639 374.589844 271.180556 375.820312 271.354167 C 376.347656 271.440972 377.490234 271.267361 376.347656 271.614583 C 370.546875 273.4375 365.009766 276.475694 358.945312 276.996528 C 357.099609 277.170139 355.341797 278.559028 353.496094 278.125 C 351.474609 277.690972 350.244141 275.694444 349.628906 273.871528 C 348.837891 271.701389 349.453125 269.270833 349.541016 266.927083 C 349.716797 262.760417 349.716797 258.59375 350.419922 254.427083 C 351.035156 251.041667 352.880859 248.090278 354.550781 244.965278 C 354.902344 244.357639 355.869141 243.142361 355.341797 244.618056 C 355.078125 245.399306 356.220703 243.229167 356.484375 242.96875 C 357.539062 241.840278 357.275391 240.798611 357.978516 239.496528 C 359.121094 237.152778 362.548828 235.850694 362.636719 233.246528 C 362.636719 231.597222 364.21875 230.555556 365.537109 229.774306 C 367.382812 228.645833 369.140625 227.256944 370.458984 225.520833 C 371.953125 223.4375 373.535156 221.440972 375.380859 219.618056 C 377.490234 217.534722 378.720703 214.756944 380.302734 212.326389 C 381.357422 210.590278 381.269531 208.420139 382.324219 206.770833 C 383.554688 204.861111 385.400391 203.559028 386.630859 201.649306 C 389.794922 197.048611 392.519531 192.1875 396.386719 188.28125 C 398.232422 186.458333 400.078125 184.722222 401.835938 182.725694 C 402.1875 182.291667 403.330078 182.118056 402.011719 182.118056 C 401.132812 182.204861 402.802734 179.861111 403.330078 179.340278 C 404.824219 177.951389 405.878906 176.128472 405.878906 174.045139 C 405.966797 171.788194 407.636719 170.052083 408.955078 168.576389 C 410.712891 166.666667 410.537109 163.975694 411.591797 161.892361 C 412.734375 159.548611 414.755859 157.899306 416.074219 155.555556 C 419.941406 148.611111 421.962891 140.451389 427.324219 134.461806 C 428.378906 133.333333 428.994141 130.729167 430.400391 130.989583 C 431.455078 131.163194 430.751953 130.381944 431.982422 128.993056 C 433.476562 127.517361 435.410156 128.993056 436.464844 130.295139 C 436.464844 130.295139 436.640625 130.46875 436.640625 130.46875 Z M 436.640625 130.46875 " transform="matrix(0.0444444,0,0,0.045,0,0)"/>
<path style="fill-rule:nonzero;fill:rgb(92.941176%,57.647059%,1.960784%);fill-opacity:1;stroke-width:1;stroke-linecap:butt;stroke-linejoin:miter;stroke:rgb(0%,0%,0%);stroke-opacity:1;stroke-miterlimit:4;" d="M 347.783203 324.305556 C 357.714844 328.645833 366.064453 335.9375 373.447266 343.75 C 376.347656 346.875 378.808594 350.173611 381.708984 353.298611 C 384.433594 356.163194 387.158203 359.114583 390.146484 361.71875 C 391.728516 363.107639 394.716797 362.934028 395.507812 365.104167 C 396.035156 366.40625 397.265625 367.013889 398.408203 367.708333 C 399.902344 368.576389 401.396484 369.618056 402.099609 371.354167 C 402.978516 373.524306 405.263672 374.479167 407.021484 375.868056 C 412.207031 380.208333 416.953125 384.982639 422.753906 388.368056 C 424.335938 389.322917 425.917969 390.277778 427.324219 391.493056 C 431.279297 394.791667 435.498047 397.743056 439.365234 401.128472 C 442.089844 403.385417 444.023438 406.423611 446.220703 409.288194 C 447.275391 410.590278 448.769531 411.371528 450 412.673611 C 453.427734 416.40625 456.328125 420.572917 458.789062 424.913194 C 460.283203 427.777778 461.513672 430.729167 461.689453 434.027778 C 461.953125 437.5 462.480469 441.145833 461.601562 444.53125 C 460.898438 446.961806 459.492188 449.131944 457.998047 451.215278 C 455.625 454.600694 453.251953 458.159722 449.912109 460.677083 C 447.978516 462.065972 445.605469 462.673611 443.408203 463.368056 C 441.650391 463.888889 440.332031 465.277778 438.486328 465.711806 C 436.640625 466.232639 434.619141 465.711806 432.685547 465.885417 C 430.576172 466.232639 428.466797 466.319444 426.621094 467.447917 C 425.039062 468.402778 423.193359 468.923611 421.523438 468.055556 C 419.765625 467.1875 419.326172 465.104167 417.744141 464.149306 C 416.074219 463.107639 415.458984 461.111111 414.931641 459.375 C 413.085938 453.211806 414.228516 446.354167 411.416016 440.538194 C 410.097656 437.760417 407.460938 435.503472 407.285156 432.291667 C 407.109375 428.559028 404.736328 425.520833 403.242188 422.222222 C 400.341797 416.232639 397.617188 410.15625 394.365234 404.166667 C 392.519531 400.694444 391.728516 396.267361 388.828125 393.489583 C 387.949219 392.708333 386.894531 392.100694 386.542969 390.885417 C 385.839844 388.541667 384.257812 386.631944 382.851562 384.722222 C 382.148438 383.767361 381.005859 383.767361 380.390625 382.638889 C 379.248047 380.729167 378.28125 378.819444 376.787109 377.083333 C 374.414062 374.392361 372.041016 371.701389 369.931641 368.663194 C 368.613281 366.666667 366.679688 364.930556 366.064453 362.586806 C 365.800781 361.197917 365.009766 360.069444 364.130859 358.940972 C 363.251953 357.8125 361.757812 357.638889 360.791016 356.684028 C 359.384766 355.208333 358.505859 353.298611 357.539062 351.5625 C 356.220703 348.784722 354.550781 346.267361 352.529297 343.836806 C 350.419922 341.319444 348.310547 338.975694 346.025391 336.631944 C 344.619141 335.243056 342.597656 333.940972 342.158203 331.944444 C 341.894531 330.46875 343.212891 329.166667 344.443359 328.732639 C 345.410156 328.385417 344.619141 326.649306 345.234375 326.736111 C 346.376953 327.083333 346.904297 324.826389 347.783203 324.305556 Z M 347.783203 324.305556 " transform="matrix(0.0444444,0,0,0.045,0,0)"/>
<path style="fill-rule:nonzero;fill:rgb(92.941176%,57.647059%,1.960784%);fill-opacity:1;stroke-width:1;stroke-linecap:butt;stroke-linejoin:miter;stroke:rgb(0%,0%,0%);stroke-opacity:1;stroke-miterlimit:4;" d="M 117.246094 333.246528 C 115.927734 332.118056 114.521484 330.989583 113.90625 329.340278 C 113.115234 327.170139 112.587891 325.086806 111.884766 322.916667 C 111.533203 321.875 110.390625 318.576389 110.654297 319.444444 C 111.09375 320.659722 112.412109 324.305556 111.796875 323.177083 C 110.654297 321.09375 109.775391 318.836806 108.984375 316.666667 C 107.226562 311.545139 106.875 306.163194 106.259766 300.868056 C 105.46875 293.923611 104.853516 286.71875 106.083984 279.774306 C 106.875 275.434028 110.214844 271.875 110.742188 267.534722 C 110.917969 266.319444 110.830078 264.583333 112.236328 263.975694 C 113.730469 263.28125 113.642578 261.631944 114.433594 260.329861 C 117.861328 254.774306 120.673828 246.961806 127.177734 245.225694 C 129.023438 244.704861 130.957031 245.138889 132.802734 245.225694 C 135.703125 245.3125 138.867188 244.184028 141.679688 245.399306 C 144.931641 246.788194 147.568359 249.131944 150.820312 250.434028 C 153.720703 251.649306 156.972656 251.736111 159.609375 253.298611 C 161.455078 254.427083 163.388672 254.253472 165.498047 254.6875 C 170.332031 255.729167 174.287109 259.114583 179.121094 259.982639 C 184.130859 260.9375 194.238281 258.506944 193.798828 263.541667 C 193.798828 264.149306 190.458984 263.541667 191.074219 263.802083 C 193.447266 264.670139 195.996094 265.538194 198.544922 265.972222 C 201.884766 266.40625 205.400391 266.232639 208.564453 267.708333 C 210.234375 268.402778 212.080078 269.184028 213.925781 268.75 C 215.859375 268.315972 217.265625 269.878472 218.935547 270.399306 C 220.957031 271.180556 223.066406 271.961806 225.263672 272.048611 C 226.845703 272.135417 228.339844 271.875 229.833984 271.875 C 233.613281 271.961806 237.128906 273.697917 240.820312 274.21875 C 245.390625 274.913194 249.960938 275.520833 254.355469 277.256944 C 258.75 278.90625 262.792969 281.597222 267.451172 282.378472 C 269.208984 282.638889 271.054688 282.552083 272.724609 283.159722 C 273.427734 283.420139 272.724609 283.159722 273.339844 283.680556 C 275.009766 285.15625 277.207031 285.850694 279.228516 286.631944 C 282.128906 287.760417 285.820312 288.628472 287.138672 291.493056 C 288.105469 293.663194 289.072266 296.180556 288.632812 298.524306 C 288.28125 300.086806 286.347656 300.607639 285.117188 301.128472 C 283.623047 301.736111 280.898438 301.736111 280.810547 303.385417 C 280.634766 304.947917 278.876953 304.947917 277.734375 304.947917 C 275.976562 304.947917 275.361328 306.944444 273.691406 307.204861 C 269.208984 307.899306 264.638672 307.204861 260.244141 308.420139 C 253.564453 310.069444 246.181641 309.114583 240.117188 312.239583 C 238.623047 313.020833 237.392578 314.0625 235.722656 314.496528 C 233.085938 315.277778 230.185547 315.625 227.8125 317.274306 C 226.40625 318.229167 224.648438 317.881944 223.066406 318.315972 C 219.814453 319.270833 217.529297 322.135417 214.365234 323.263889 C 208.916016 325.086806 203.291016 325.694444 197.841797 327.430556 C 193.359375 328.90625 188.789062 332.204861 184.130859 331.336806 C 182.548828 330.989583 181.230469 331.684028 179.824219 332.291667 C 177.275391 333.420139 174.375 332.465278 171.738281 332.465278 C 168.310547 332.552083 165.058594 333.854167 161.71875 334.114583 C 155.302734 334.548611 148.974609 334.201389 142.646484 333.767361 C 140.449219 333.680556 138.164062 333.680556 135.966797 334.114583 C 131.660156 334.895833 127.177734 335.850694 122.783203 335.416667 C 120.761719 335.243056 119.003906 334.027778 117.246094 333.246528 Z M 117.246094 333.246528 " transform="matrix(0.0444444,0,0,0.045,0,0)"/>
</g>
</svg>
