<?xml version="1.0" encoding="UTF-8"?>
<svg xmlns="http://www.w3.org/2000/svg" xmlns:xlink="http://www.w3.org/1999/xlink" width="px" height="27px" viewBox="0 0 27 27" version="1.1">
<g id="surface1">
<path style="fill-rule:evenodd;fill:rgb(0%,0%,0%);fill-opacity:1;stroke-width:0.036;stroke-linecap:butt;stroke-linejoin:miter;stroke:rgb(0%,0%,0%);stroke-opacity:1;stroke-miterlimit:10;" d="M 75.739579 14.930878 C 66.613268 20.970177 57.927133 28.497833 49.710518 39.288428 C 41.435214 50.021778 30.019988 62.043131 26.703997 78.844402 C 23.358661 95.73154 24.297703 121.663314 29.667848 139.266009 C 34.949957 156.611103 43.870853 172.782684 58.396654 182.600122 C 73.01049 192.360315 97.249503 198.628591 116.089026 197.512323 C 134.723134 196.167076 155.880917 186.778973 169.731781 175.301443 C 183.465266 163.652181 192.885027 146.078108 198.167137 128.704392 C 203.390556 111.216186 204.417633 88.54735 200.925572 71.803324 C 197.169405 55.002053 185.98894 40.261585 176.510488 28.984412 C 166.885311 17.678616 156.203712 9.034691 143.996171 4.626862 C 131.612559 0.276277 115.208674 1.220812 103.646724 3.024015 C 92.172809 4.827218 84.719165 8.748469 75.739579 14.930878 Z M 75.739579 14.930878 " transform="matrix(0.133114,0,0,0.136476,0,0.0208885)"/>
<path style="fill-rule:evenodd;fill:rgb(100%,50.196078%,0%);fill-opacity:1;stroke-width:0.036;stroke-linecap:butt;stroke-linejoin:miter;stroke:rgb(0%,0%,0%);stroke-opacity:1;stroke-miterlimit:10;" d="M 76.884036 16.877193 C 68.051176 22.744757 59.834561 29.957569 51.852707 40.376074 C 43.753473 50.622846 33.071874 62.501087 29.579812 78.529557 C 26.146441 94.586649 26.733342 118.886954 31.575276 136.031692 C 36.4759 153.061942 44.545789 169.891835 58.690104 179.909629 C 72.834419 189.698444 97.014742 195.966721 115.560815 194.82183 C 133.989508 193.505206 155.14729 183.487412 168.675359 172.324728 C 181.909978 160.904443 190.302663 144.532506 195.232632 127.645368 C 200.015875 110.643741 201.101642 88.060772 197.638926 71.717457 C 194.029484 55.34552 183.230505 41.320609 174.133539 30.444147 C 164.919193 19.481819 154.501699 11.152739 142.763678 6.945266 C 130.849587 2.823659 114.915224 3.539216 103.822794 5.342419 C 92.730365 7.00251 85.570172 10.895139 76.884036 16.877193 Z M 76.884036 16.877193 " transform="matrix(0.133114,0,0,0.136476,0,0.0208885)"/>
<path style="fill-rule:evenodd;fill:rgb(0%,0%,0%);fill-opacity:1;stroke-width:0.036;stroke-linecap:butt;stroke-linejoin:miter;stroke:rgb(0%,0%,0%);stroke-opacity:1;stroke-miterlimit:10;" d="M 121.781966 7.861178 C 123.366599 5.972109 124.599091 5.056196 125.332717 5.170685 C 125.978309 5.313796 125.450098 7.689445 126.154379 8.405001 C 126.85866 9.006069 127.797702 9.006069 129.382335 8.691224 C 133.050466 8.347757 136.073007 8.376379 138.30323 8.948824 C 140.592145 9.492648 143.790755 11.496206 142.910404 11.92554 C 141.912672 12.211763 135.427415 10.923761 132.639635 11.095494 C 129.793165 11.238606 127.621632 11.753807 126.154379 12.755586 C 124.599091 11.639318 123.014458 12.211763 121.253755 14.644656 C 119.375672 17.020304 117.116103 23.632048 115.560815 27.123964 C 113.829457 30.558636 112.098099 36.02549 111.775303 35.224066 C 111.481853 34.250909 112.86107 25.721473 113.946837 21.971956 C 114.915224 18.279684 116.177061 15.274346 117.732349 13.013186 C 115.53147 12.211763 114.298978 11.496206 113.653387 10.866516 C 113.037141 10.208204 112.74369 9.349536 114.181598 8.948824 C 115.560815 8.405001 118.055145 8.032912 121.781966 7.861178 Z M 121.781966 7.861178 " transform="matrix(0.133114,0,0,0.136476,0,0.0208885)"/>
<path style="fill-rule:evenodd;fill:rgb(0%,0%,0%);fill-opacity:1;stroke-width:0.036;stroke-linecap:butt;stroke-linejoin:miter;stroke:rgb(0%,0%,0%);stroke-opacity:1;stroke-miterlimit:10;" d="M 73.832151 182.371144 C 79.994612 185.891682 87.800396 187.837997 97.660333 188.582176 C 107.637651 189.297732 120.960305 189.698444 132.61029 186.435506 C 144.113551 182.857722 166.826621 168.718322 166.210375 168.002765 C 165.271333 167.43032 140.181314 179.795139 128.003117 182.371144 C 115.824921 184.746792 104.615111 184.08848 93.610716 182.084921 C 82.547632 179.852384 65.380776 169.748724 61.91806 169.605612 C 58.367309 169.548368 61.91806 173.24064 72.482279 181.283497 Z M 73.832151 182.371144 " transform="matrix(0.133114,0,0,0.136476,0,0.0208885)"/>
<path style="fill-rule:evenodd;fill:rgb(0%,0%,0%);fill-opacity:1;stroke-width:0.036;stroke-linecap:butt;stroke-linejoin:miter;stroke:rgb(0%,0%,0%);stroke-opacity:1;stroke-miterlimit:10;" d="M 83.838814 3.539216 C 78.263254 0.476633 70.956336 -0.238923 61.624609 1.392546 C 52.234193 2.938148 37.473632 6.687665 28.05387 13.013186 C 18.458038 19.281463 9.654522 29.585479 5.047349 39.030828 C 0.440176 48.390309 -0.968387 58.37948 0.674936 69.112831 C 1.525943 68.053807 5.076694 66.966161 11.532605 65.849892 C 17.988517 64.676379 27.085483 63.588733 39.175645 62.329353 C 37.150836 66.937538 37.356251 72.976837 39.967961 80.475871 C 42.550326 87.974905 47.333569 96.647452 54.611142 107.037335 C 63.942868 97.906832 71.425857 89.005307 77.617663 79.674448 C 83.809469 70.400833 89.502409 63.474244 91.175077 51.739114 C 92.583639 39.94674 91.175077 25.864585 86.567904 9.235047 C 89.267648 7.260111 93.199885 6.029353 98.7461 5.170685 C 104.26297 4.254773 110.982987 4.111661 119.346327 4.340639 C 118.20187 3.396105 115.70754 2.651926 112.039409 1.936369 C 108.224552 1.106323 101.797986 -0.238923 97.132122 0.018677 C 92.407569 0.3049 87.976466 1.392546 83.838814 3.539216 Z M 83.838814 3.539216 " transform="matrix(0.133114,0,0,0.136476,0,0.0208885)"/>
<path style="fill-rule:evenodd;fill:rgb(25.098039%,50.196078%,0%);fill-opacity:1;stroke-width:0.036;stroke-linecap:butt;stroke-linejoin:miter;stroke:rgb(0%,0%,0%);stroke-opacity:1;stroke-miterlimit:10;" d="M 80.610858 4.626862 C 73.391975 13.270787 66.848029 21.828845 60.538842 30.615881 C 54.112276 39.402917 45.660901 47.960975 42.961156 56.891123 C 40.290757 65.678159 42.579671 75.695952 44.575134 83.166364 C 46.453217 90.608154 49.651828 96.418474 54.317691 101.083904 C 63.209242 92.067889 70.310745 83.36672 76.003685 74.78004 C 81.579245 66.107493 87.12546 61.327574 87.917776 49.592444 C 88.710092 37.771448 86.215763 22.973736 80.610858 4.626862 Z M 80.610858 4.626862 " transform="matrix(0.133114,0,0,0.136476,0,0.0208885)"/>
<path style="fill-rule:evenodd;fill:rgb(0%,0%,0%);fill-opacity:1;stroke-width:0.036;stroke-linecap:butt;stroke-linejoin:miter;stroke:rgb(0%,0%,0%);stroke-opacity:1;stroke-miterlimit:10;" d="M 75.211368 26.580141 C 73.656081 28.812678 62.710376 52.56916 59.482421 62.873176 C 56.137085 72.948215 54.229656 89.033929 55.696909 87.001748 C 57.134816 84.654722 64.793875 60.068194 68.139211 49.878667 C 71.455202 39.631895 76.502551 24.490716 75.211368 26.580141 Z M 75.211368 26.580141 " transform="matrix(0.133114,0,0,0.136476,0,0.0208885)"/>
<path style="fill-rule:evenodd;fill:rgb(25.098039%,50.196078%,0%);fill-opacity:1;stroke-width:0.036;stroke-linecap:butt;stroke-linejoin:miter;stroke:rgb(0%,0%,0%);stroke-opacity:1;stroke-miterlimit:10;" d="M 75.446129 3.796816 C 65.615536 3.682327 56.547915 5.285174 47.832435 8.405001 C 38.999574 11.524829 30.342784 16.276125 23.446697 22.515779 C 16.491919 28.698189 10.182733 38.315271 6.925432 45.528082 C 3.550751 52.655027 2.699745 59.066415 3.932237 65.019847 C 6.338531 63.588733 10.417493 62.329353 16.403884 61.241707 C 22.41962 60.182683 30.108023 59.266771 39.703855 58.551214 C 41.053728 52.368804 43.371987 46.358128 47.010773 40.376074 C 50.53218 34.365398 56.3425 28.812678 61.096398 22.77338 C 65.820952 16.59097 70.604195 10.379938 75.446129 3.796816 Z M 75.446129 3.796816 " transform="matrix(0.133114,0,0,0.136476,0,0.0208885)"/>
<path style="fill-rule:evenodd;fill:rgb(0%,0%,0%);fill-opacity:1;stroke-width:0.036;stroke-linecap:butt;stroke-linejoin:miter;stroke:rgb(0%,0%,0%);stroke-opacity:1;stroke-miterlimit:10;" d="M 65.146016 9.77887 C 56.635951 13.413898 48.419336 18.594529 40.261411 25.463873 C 32.074142 32.275972 24.239013 40.633675 16.403884 50.680091 C 21.157783 47.331285 27.437624 42.322388 35.654238 35.510289 C 43.841508 28.640945 53.466685 20.111509 65.146016 9.77887 Z M 65.146016 9.77887 " transform="matrix(0.133114,0,0,0.136476,0,0.0208885)"/>
</g>
</svg>
