<?xml version="1.0" encoding="UTF-8"?>
<svg xmlns="http://www.w3.org/2000/svg" xmlns:xlink="http://www.w3.org/1999/xlink" width="24px" height="35px" viewBox="0 0 24 35" version="1.1">
<g id="surface1">
<path style=" stroke:none;fill-rule:nonzero;fill:rgb(26.27451%,38.039216%,10.196078%);fill-opacity:1;" d="M 10.992188 11.339844 C 10.972656 12.015625 10.90625 12.6875 10.800781 13.351562 C 10.699219 14.015625 10.558594 14.671875 10.371094 15.316406 L 10.351562 15.390625 L 9.171875 14.964844 L 9.171875 14.902344 C 9.671875 12.230469 9.632812 9.488281 9.054688 6.835938 C 8.550781 4.609375 7.828125 2.4375 6.90625 0.351562 L 6.78125 0.0703125 L 7.019531 0.269531 C 8.28125 1.390625 9.265625 3.101562 9.917969 4.960938 C 10.65625 7.003906 11.019531 9.164062 10.992188 11.339844 Z M 10.671875 13.332031 C 10.773438 12.671875 10.835938 12.003906 10.859375 11.335938 C 10.882812 9.183594 10.523438 7.039062 9.796875 5.011719 C 9.171875 3.292969 8.292969 1.710938 7.171875 0.617188 C 8.046875 2.613281 8.726562 4.691406 9.210938 6.816406 C 9.785156 9.46875 9.828125 12.210938 9.335938 14.878906 L 10.253906 15.214844 C 10.429688 14.59375 10.570312 13.96875 10.671875 13.332031 Z M 10.671875 13.332031 "/>
<path style=" stroke:none;fill-rule:evenodd;fill:rgb(37.254902%,60.392157%,10.196078%);fill-opacity:1;" d="M 10.921875 11.339844 C 10.875 12.683594 10.667969 14.011719 10.304688 15.304688 L 9.265625 14.933594 C 10.390625 8.972656 8.601562 4.171875 6.984375 0.335938 C 9.664062 2.726562 11.027344 7.78125 10.921875 11.339844 Z M 10.921875 11.339844 "/>
<path style=" stroke:none;fill-rule:nonzero;fill:rgb(26.27451%,38.039216%,10.196078%);fill-opacity:1;" d="M 7.003906 0.304688 C 8.359375 2.480469 9.328125 4.875 9.863281 7.382812 C 10.382812 9.949219 10.355469 12.597656 9.78125 15.152344 L 9.710938 15.136719 C 10.28125 12.589844 10.308594 9.953125 9.792969 7.394531 C 9.261719 4.894531 8.296875 2.503906 6.941406 0.335938 L 7.003906 0.300781 Z M 7.003906 0.304688 "/>
<path style=" stroke:none;fill-rule:nonzero;fill:rgb(67.058824%,56.078431%,12.156863%);fill-opacity:1;" d="M 8.449219 15.132812 C 8.523438 13.789062 8.5625 12.480469 8.574219 11.203125 C 8.585938 9.925781 8.566406 8.6875 8.515625 7.484375 C 8.515625 7.414062 8.570312 7.355469 8.640625 7.355469 L 10.980469 7.355469 C 11.011719 7.355469 11.046875 7.367188 11.070312 7.390625 C 11.09375 7.417969 11.105469 7.449219 11.105469 7.484375 L 11.105469 7.5 C 11.042969 8.679688 11.019531 9.917969 11.023438 11.183594 C 11.03125 12.453125 11.0625 13.769531 11.105469 15.097656 C 11.019531 16.359375 10.980469 17.617188 10.980469 18.871094 C 10.980469 20.125 11.019531 21.382812 11.105469 22.648438 L 11.105469 22.667969 C 11.089844 23.714844 11.082031 24.890625 11.082031 26.148438 C 11.085938 27.40625 11.082031 28.753906 11.105469 30.15625 C 11.105469 30.207031 11.078125 30.25 11.03125 30.269531 C 10.929688 30.320312 10.953125 30.808594 10.980469 31.574219 C 11.042969 32.65625 11.023438 33.738281 10.921875 34.8125 C 10.914062 34.878906 10.859375 34.929688 10.792969 34.925781 L 8.425781 34.925781 C 8.355469 34.929688 8.296875 34.875 8.292969 34.804688 L 8.25 34.402344 C 8.167969 33.644531 8.125 33.28125 8.121094 32.863281 C 8.121094 32.488281 8.136719 32.074219 8.175781 31.285156 L 8.230469 30.257812 C 8.347656 29.082031 8.40625 27.84375 8.425781 26.558594 C 8.441406 25.273438 8.40625 23.933594 8.34375 22.558594 C 8.417969 21.332031 8.464844 20.101562 8.484375 18.867188 C 8.5 17.636719 8.488281 16.394531 8.445312 15.140625 Z M 8.832031 11.203125 C 8.820312 12.480469 8.777344 13.789062 8.707031 15.132812 C 8.746094 16.378906 8.757812 17.625 8.742188 18.867188 C 8.722656 20.105469 8.675781 21.339844 8.605469 22.566406 C 8.667969 23.9375 8.699219 25.28125 8.683594 26.570312 C 8.664062 27.863281 8.605469 29.113281 8.488281 30.289062 L 8.4375 31.308594 C 8.394531 32.09375 8.375 32.503906 8.382812 32.871094 C 8.386719 33.234375 8.425781 33.628906 8.507812 34.382812 L 8.542969 34.679688 L 10.671875 34.679688 C 10.757812 33.652344 10.777344 32.617188 10.71875 31.589844 C 10.6875 30.816406 10.667969 30.289062 10.84375 30.097656 C 10.84375 28.722656 10.820312 27.394531 10.820312 26.152344 C 10.816406 24.910156 10.820312 23.71875 10.84375 22.667969 C 10.757812 21.40625 10.714844 20.140625 10.714844 18.875 C 10.71875 17.613281 10.761719 16.347656 10.84375 15.089844 C 10.800781 13.769531 10.769531 12.460938 10.761719 11.179688 C 10.761719 9.949219 10.761719 8.75 10.835938 7.605469 L 8.777344 7.605469 C 8.824219 8.769531 8.84375 9.96875 8.832031 11.199219 Z M 8.832031 11.203125 "/>
<path style=" stroke:none;fill-rule:evenodd;fill:rgb(93.72549%,76.470588%,25.098039%);fill-opacity:1;" d="M 8.578125 15.136719 C 8.722656 12.449219 8.746094 9.898438 8.644531 7.484375 L 10.980469 7.484375 C 10.84375 9.855469 10.894531 12.457031 10.980469 15.105469 C 10.808594 17.628906 10.808594 20.160156 10.980469 22.683594 C 10.941406 24.789062 10.953125 27.386719 10.980469 30.183594 C 10.617188 30.355469 11.0625 32.28125 10.792969 34.828125 L 8.425781 34.828125 C 8.1875 32.675781 8.214844 33.230469 8.355469 30.300781 C 8.582031 27.734375 8.621094 25.15625 8.472656 22.582031 C 8.617188 20.125 8.65625 17.648438 8.574219 15.148438 Z M 8.578125 15.136719 "/>
<path style=" stroke:none;fill-rule:nonzero;fill:rgb(26.27451%,38.039216%,10.196078%);fill-opacity:1;" d="M 10.050781 11.367188 C 9.851562 11.984375 9.6875 12.613281 9.5625 13.25 C 9.441406 13.859375 9.359375 14.476562 9.3125 15.097656 L 10.261719 15.097656 C 10.695312 12.5 11.640625 10.011719 13.042969 7.785156 C 14.1875 6 15.496094 4.332031 16.957031 2.796875 C 15.566406 3.425781 14.246094 4.582031 13.117188 5.949219 C 11.78125 7.558594 10.742188 9.394531 10.050781 11.367188 Z M 9.425781 13.222656 C 9.550781 12.582031 9.714844 11.945312 9.921875 11.324219 C 10.613281 9.332031 11.660156 7.480469 13.007812 5.859375 C 14.234375 4.382812 15.683594 3.144531 17.222656 2.535156 L 17.503906 2.417969 L 17.292969 2.644531 C 15.75 4.246094 14.367188 5.992188 13.160156 7.859375 C 11.757812 10.089844 10.816406 12.582031 10.390625 15.183594 L 10.390625 15.242188 L 9.160156 15.242188 L 9.160156 15.164062 C 9.207031 14.515625 9.292969 13.863281 9.421875 13.222656 Z M 9.425781 13.222656 "/>
<path style=" stroke:none;fill-rule:evenodd;fill:rgb(37.254902%,60.392157%,10.196078%);fill-opacity:1;" d="M 9.988281 11.34375 C 9.585938 12.585938 9.332031 13.871094 9.234375 15.171875 L 10.320312 15.171875 C 11.269531 9.363281 14.488281 5.574219 17.230469 2.601562 C 13.980469 3.902344 11.050781 8.066406 9.988281 11.34375 Z M 9.988281 11.34375 "/>
<path style=" stroke:none;fill-rule:nonzero;fill:rgb(26.27451%,38.039216%,10.196078%);fill-opacity:1;" d="M 17.253906 2.625 C 15.300781 4.160156 13.632812 6.019531 12.320312 8.121094 C 11 10.285156 10.152344 12.699219 9.828125 15.214844 L 9.757812 15.214844 C 10.082031 12.695312 10.933594 10.269531 12.257812 8.101562 C 13.574219 5.988281 15.25 4.117188 17.207031 2.582031 L 17.253906 2.636719 Z M 17.253906 2.625 "/>
<path style=" stroke:none;fill-rule:nonzero;fill:rgb(50.980392%,42.352941%,7.45098%);fill-opacity:1;" d="M 8.578125 15.007812 L 10.964844 15.007812 L 10.964844 15.265625 L 8.578125 15.265625 Z M 8.578125 15.007812 "/>
<path style=" stroke:none;fill-rule:nonzero;fill:rgb(26.27451%,38.039216%,10.196078%);fill-opacity:1;" d="M 9.636719 17.570312 C 9.894531 18.363281 10.105469 19.167969 10.265625 19.984375 C 10.425781 20.800781 10.539062 21.628906 10.597656 22.457031 L 10.597656 22.554688 L 9.054688 22.554688 L 9.039062 22.476562 C 8.5 19.167969 7.296875 16.003906 5.511719 13.164062 C 3.90625 10.566406 2.011719 8.421875 0.28125 6.527344 L 0 6.230469 L 0.367188 6.378906 C 2.308594 7.15625 4.152344 8.726562 5.703125 10.605469 C 7.421875 12.667969 8.75 15.027344 9.632812 17.5625 Z M 10.089844 20.023438 C 9.933594 19.210938 9.726562 18.414062 9.46875 17.628906 C 8.59375 15.113281 7.273438 12.773438 5.570312 10.722656 C 4.132812 8.988281 2.453125 7.523438 0.683594 6.710938 C 2.542969 8.667969 4.210938 10.796875 5.664062 13.070312 C 7.449219 15.90625 8.652344 19.070312 9.203125 22.378906 L 10.410156 22.378906 C 10.351562 21.585938 10.246094 20.800781 10.089844 20.023438 Z M 10.089844 20.023438 "/>
<path style=" stroke:none;fill-rule:evenodd;fill:rgb(37.254902%,60.392157%,10.196078%);fill-opacity:1;" d="M 9.546875 17.601562 C 10.058594 19.179688 10.382812 20.8125 10.503906 22.46875 L 9.128906 22.46875 C 7.925781 15.074219 3.824219 10.253906 0.335938 6.46875 C 4.46875 8.128906 8.179688 13.425781 9.546875 17.601562 Z M 9.546875 17.601562 "/>
<path style=" stroke:none;fill-rule:nonzero;fill:rgb(26.27451%,38.039216%,10.196078%);fill-opacity:1;" d="M 0.363281 6.433594 C 2.851562 8.390625 4.984375 10.761719 6.65625 13.449219 C 8.34375 16.214844 9.421875 19.300781 9.828125 22.511719 L 9.742188 22.511719 C 9.332031 19.316406 8.257812 16.246094 6.582031 13.496094 C 4.910156 10.820312 2.785156 8.457031 0.304688 6.511719 L 0.363281 6.441406 Z M 0.363281 6.433594 "/>
<path style=" stroke:none;fill-rule:nonzero;fill:rgb(50.980392%,42.352941%,7.45098%);fill-opacity:1;" d="M 8.476562 22.441406 L 10.964844 22.417969 L 10.96875 22.671875 L 8.476562 22.699219 Z M 8.476562 22.441406 "/>
<path style=" stroke:none;fill-rule:nonzero;fill:rgb(26.27451%,38.039216%,10.196078%);fill-opacity:1;" d="M 10.390625 23.214844 C 9.671875 25.429688 9.214844 27.722656 9.03125 30.042969 L 10.769531 30.042969 C 11.5625 25.289062 13.292969 20.742188 15.855469 16.660156 C 18.054688 13.113281 20.621094 10.160156 23.027344 7.53125 C 20.472656 8.695312 18.054688 10.804688 16.003906 13.296875 C 13.554688 16.242188 11.652344 19.601562 10.390625 23.214844 Z M 9.242188 26.609375 C 9.472656 25.433594 9.773438 24.273438 10.144531 23.136719 C 11.414062 19.488281 13.328125 16.101562 15.796875 13.132812 C 18.042969 10.429688 20.683594 8.171875 23.472656 7.054688 L 24 6.84375 L 23.617188 7.261719 C 21.109375 9.976562 18.386719 13.066406 16.074219 16.804688 C 13.507812 20.886719 11.785156 25.441406 11.003906 30.199219 L 10.988281 30.308594 L 8.742188 30.308594 L 8.742188 30.171875 C 8.835938 28.976562 9.003906 27.785156 9.242188 26.609375 Z M 9.242188 26.609375 "/>
<path style=" stroke:none;fill-rule:evenodd;fill:rgb(37.254902%,60.392157%,10.196078%);fill-opacity:1;" d="M 10.265625 23.175781 C 9.53125 25.445312 9.070312 27.792969 8.894531 30.171875 L 10.878906 30.171875 C 12.609375 19.546875 18.5 12.617188 23.515625 7.175781 C 17.570312 9.558594 12.238281 17.171875 10.261719 23.175781 Z M 10.265625 23.175781 "/>
<path style=" stroke:none;fill-rule:nonzero;fill:rgb(26.27451%,38.039216%,10.196078%);fill-opacity:1;" d="M 23.585938 7.242188 C 19.953125 10.160156 16.882812 13.472656 14.554688 17.289062 C 12.144531 21.238281 10.59375 25.65625 10.003906 30.246094 L 9.839844 30.226562 C 10.429688 25.609375 11.988281 21.171875 14.410156 17.199219 C 16.820312 13.335938 19.882812 9.921875 23.464844 7.109375 L 23.574219 7.242188 Z M 23.585938 7.242188 "/>
<path style=" stroke:none;fill-rule:nonzero;fill:rgb(50.980392%,42.352941%,7.45098%);fill-opacity:1;" d="M 8.300781 30.160156 L 11.011719 30.085938 L 11.019531 30.34375 L 8.308594 30.417969 Z M 8.300781 30.160156 "/>
</g>
</svg>
