<?xml version="1.0" encoding="UTF-8"?>
<svg xmlns="http://www.w3.org/2000/svg" xmlns:xlink="http://www.w3.org/1999/xlink" width="32px" height="30px" viewBox="0 0 31 30" version="1.1">
<g id="surface1">
<path style=" stroke:none;fill-rule:evenodd;fill:rgb(94.117647%,58.039216%,9.411765%);fill-opacity:1;" d="M 15.539062 4.792969 C 17.105469 3.695312 17.328125 2.167969 15.550781 0.015625 C 14.777344 0.8125 13.144531 3.128906 15.539062 4.792969 Z M 15.539062 4.792969 "/>
<path style=" stroke:none;fill-rule:evenodd;fill:rgb(94.117647%,58.039216%,9.411765%);fill-opacity:1;" d="M 22.382812 24.832031 C 22.484375 24.578125 22.765625 24.457031 23.011719 24.558594 C 23.261719 24.664062 23.378906 24.949219 23.277344 25.203125 C 23.082031 25.703125 22.851562 26.199219 22.621094 26.699219 C 22.1875 27.640625 21.75 28.59375 21.523438 29.597656 C 21.464844 29.867188 21.207031 30.03125 20.945312 29.972656 C 20.6875 29.910156 20.523438 29.644531 20.582031 29.378906 C 20.832031 28.265625 21.292969 27.265625 21.75 26.277344 C 21.972656 25.796875 22.191406 25.320312 22.382812 24.832031 Z M 22.382812 24.832031 "/>
<path style=" stroke:none;fill-rule:evenodd;fill:rgb(94.117647%,58.039216%,9.411765%);fill-opacity:1;" d="M 7.644531 25.199219 C 7.542969 24.945312 7.664062 24.660156 7.910156 24.554688 C 8.15625 24.453125 8.4375 24.578125 8.539062 24.828125 C 8.730469 25.320312 8.949219 25.796875 9.171875 26.273438 C 9.609375 27.226562 10.054688 28.191406 10.3125 29.261719 C 10.375 29.527344 10.214844 29.796875 9.953125 29.859375 C 9.699219 29.921875 9.433594 29.757812 9.375 29.492188 C 9.144531 28.523438 8.71875 27.605469 8.300781 26.691406 C 8.070312 26.199219 7.84375 25.699219 7.644531 25.199219 Z M 7.644531 25.199219 "/>
<path style=" stroke:none;fill-rule:evenodd;fill:rgb(94.117647%,58.039216%,9.411765%);fill-opacity:1;" d="M 14.992188 23.179688 C 14.992188 22.90625 15.207031 22.683594 15.472656 22.683594 C 15.738281 22.683594 15.953125 22.90625 15.953125 23.179688 L 15.953125 29.230469 C 15.953125 29.507812 15.738281 29.726562 15.472656 29.726562 C 15.203125 29.726562 14.992188 29.503906 14.992188 29.230469 Z M 14.992188 23.179688 "/>
<path style=" stroke:none;fill-rule:evenodd;fill:rgb(94.117647%,58.039216%,9.411765%);fill-opacity:1;" d="M 28.398438 10.46875 C 29.921875 10.085938 30.527344 8.96875 29.757812 6.769531 C 28.929688 7.15625 27.011719 8.46875 28.398438 10.46875 Z M 28.398438 10.46875 "/>
<path style=" stroke:none;fill-rule:evenodd;fill:rgb(100%,82.352941%,1.176471%);fill-opacity:1;" d="M 28 12.542969 C 29.25 13.140625 29.953125 13.089844 31 11.152344 C 29.703125 11.023438 28.445312 10.601562 28 12.542969 Z M 27.246094 12.257812 C 25.925781 11.867188 25.425781 11.351562 25.875 9.183594 C 26.9375 9.960938 28.152344 10.492188 27.246094 12.257812 Z M 23.113281 23.566406 C 21.316406 23.03125 20.636719 22.332031 21.246094 19.386719 C 22.691406 20.441406 24.347656 21.164062 23.113281 23.566406 Z M 24.25 20.445312 C 22.453125 19.914062 21.773438 19.214844 22.382812 16.265625 C 23.832031 17.320312 25.484375 18.042969 24.25 20.445312 Z M 25.367188 17.386719 C 23.769531 16.914062 23.167969 16.292969 23.710938 13.671875 C 24.996094 14.609375 26.464844 15.253906 25.367188 17.386719 Z M 26.367188 14.671875 C 24.945312 14.25 24.410156 13.695312 24.890625 11.371094 C 26.03125 12.203125 27.335938 12.773438 26.367188 14.671875 Z M 23.886719 23.859375 C 25.585938 24.671875 26.542969 24.597656 27.96875 21.960938 C 26.203125 21.785156 24.492188 21.21875 23.886719 23.859375 Z M 25.027344 20.742188 C 26.722656 21.550781 27.683594 21.476562 29.109375 18.84375 C 27.34375 18.667969 25.632812 18.101562 25.027344 20.742188 Z M 26.136719 17.679688 C 27.648438 18.398438 28.496094 18.339844 29.765625 15.996094 C 28.195312 15.835938 26.671875 15.332031 26.136719 17.679688 Z M 27.121094 14.960938 C 28.460938 15.597656 29.21875 15.542969 30.34375 13.464844 C 28.953125 13.324219 27.597656 12.875 27.121094 14.960938 Z M 27.121094 14.960938 "/>
<path style=" stroke:none;fill-rule:evenodd;fill:rgb(94.117647%,58.039216%,9.411765%);fill-opacity:1;" d="M 2.601562 10.386719 C 1.078125 10.003906 0.472656 8.890625 1.242188 6.6875 C 2.070312 7.078125 3.988281 8.386719 2.601562 10.386719 Z M 2.601562 10.386719 "/>
<path style=" stroke:none;fill-rule:evenodd;fill:rgb(100%,82.352941%,1.176471%);fill-opacity:1;" d="M 3 12.46875 C 1.75 13.0625 1.046875 13.007812 0 11.070312 C 1.296875 10.941406 2.554688 10.523438 3 12.46875 Z M 7.886719 23.484375 C 9.683594 22.953125 10.363281 22.253906 9.753906 19.304688 C 8.308594 20.359375 6.652344 21.085938 7.886719 23.484375 Z M 6.75 20.363281 C 8.546875 19.832031 9.226562 19.132812 8.617188 16.1875 C 7.167969 17.242188 5.515625 17.960938 6.75 20.363281 Z M 5.632812 17.308594 C 7.230469 16.835938 7.832031 16.210938 7.289062 13.59375 C 6.003906 14.53125 4.535156 15.171875 5.632812 17.308594 Z M 4.632812 14.589844 C 6.054688 14.171875 6.589844 13.617188 6.109375 11.292969 C 4.96875 12.125 3.664062 12.695312 4.632812 14.589844 Z M 3.753906 12.175781 C 5.074219 11.785156 5.574219 11.269531 5.125 9.105469 C 4.0625 9.878906 2.847656 10.410156 3.753906 12.175781 Z M 7.113281 23.78125 C 5.414062 24.59375 4.457031 24.519531 3.03125 21.882812 C 4.796875 21.707031 6.507812 21.140625 7.113281 23.78125 Z M 5.972656 20.664062 C 4.277344 21.472656 3.316406 21.402344 1.890625 18.765625 C 3.65625 18.589844 5.367188 18.019531 5.972656 20.664062 Z M 4.863281 17.601562 C 3.351562 18.320312 2.503906 18.257812 1.234375 15.914062 C 2.804688 15.757812 4.328125 15.253906 4.863281 17.601562 Z M 3.878906 14.882812 C 2.539062 15.523438 1.78125 15.464844 0.65625 13.386719 C 2.046875 13.242188 3.402344 12.796875 3.878906 14.882812 Z M 3.878906 14.882812 "/>
<path style=" stroke:none;fill-rule:evenodd;fill:rgb(100%,82.352941%,1.176471%);fill-opacity:1;" d="M 15.949219 10.433594 C 17.730469 10.574219 18.5625 10.179688 18.980469 7.339844 C 17.34375 7.785156 15.632812 7.863281 15.949219 10.433594 Z M 15.945312 7.316406 C 17.605469 7.449219 18.382812 7.085938 18.765625 4.4375 C 17.246094 4.851562 15.652344 4.925781 15.945312 7.316406 Z M 14.960938 21.914062 C 12.703125 22.09375 11.648438 21.597656 11.125 17.996094 C 13.195312 18.5625 15.367188 18.660156 14.960938 21.914062 Z M 14.960938 17.886719 C 12.703125 18.066406 11.648438 17.570312 11.125 13.96875 C 13.195312 14.535156 15.367188 14.636719 14.960938 17.886719 Z M 14.96875 13.941406 C 12.960938 14.101562 12.019531 13.660156 11.554688 10.457031 C 13.394531 10.960938 15.324219 11.046875 14.96875 13.941406 Z M 14.972656 10.433594 C 13.191406 10.574219 12.359375 10.179688 11.941406 7.339844 C 13.578125 7.785156 15.289062 7.863281 14.972656 10.433594 Z M 14.976562 7.316406 C 13.316406 7.449219 12.539062 7.085938 12.15625 4.4375 C 13.675781 4.851562 15.273438 4.925781 14.976562 7.316406 Z M 15.960938 21.914062 C 18.21875 22.09375 19.273438 21.597656 19.796875 17.996094 C 17.726562 18.5625 15.554688 18.660156 15.960938 21.914062 Z M 15.960938 17.886719 C 18.21875 18.066406 19.273438 17.570312 19.796875 13.96875 C 17.726562 14.535156 15.554688 14.636719 15.960938 17.886719 Z M 15.953125 13.941406 C 17.960938 14.101562 18.902344 13.660156 19.367188 10.457031 C 17.527344 10.960938 15.597656 11.046875 15.953125 13.941406 Z M 15.953125 13.941406 "/>
</g>
</svg>
